<svg width="1920" height="934" viewBox="0 0 1920 934" xmlns="http://www.w3.org/2000/svg"><title>snow</title><g fill-rule="nonzero" fill="#FFF"><path d="M12.604 137.23c-.038-1.92 1.088-3.67 2.85-4.43 1.76-.76 3.806-.38 5.176.964 1.37 1.342 1.79 3.38 1.066 5.156-.725 1.776-2.452 2.937-4.37 2.937-1.24.014-2.436-.466-3.322-1.334-.886-.87-1.39-2.054-1.4-3.294zm43.64 320.673c-3.436.074-6.17 2.906-6.12 6.343.048 3.437 2.86 6.19 6.297 6.167 3.438-.024 6.212-2.817 6.213-6.254-.014-1.683-.697-3.29-1.9-4.466-1.2-1.176-2.82-1.825-4.502-1.804l.014.013zm40.8 429.736c-3.436.073-6.17 2.905-6.12 6.342.047 3.436 2.86 6.19 6.297 6.166 3.438-.024 6.212-2.816 6.213-6.253-.018-1.677-.7-3.278-1.9-4.45-1.197-1.174-2.812-1.823-4.49-1.806zM26.208 599.547c-3.436.074-6.17 2.906-6.12 6.343.048 3.437 2.86 6.19 6.297 6.167 3.437-.024 6.21-2.816 6.212-6.253-.044-3.487-2.902-6.28-6.39-6.242v-.014zm-4.56-241.41c-.045 1.952 1.097 3.735 2.888 4.512 1.79.777 3.873.393 5.268-.972 1.395-1.364 1.826-3.437 1.09-5.245-.737-1.807-2.494-2.99-4.446-2.99-1.273-.014-2.498.484-3.4 1.382-.904.898-1.408 2.12-1.4 3.394v-.08zM4.587 690.1c-2.578.057-4.626 2.185-4.587 4.763.04 2.58 2.15 4.644 4.73 4.625 2.578-.02 4.66-2.114 4.66-4.693-.014-1.26-.528-2.462-1.43-3.342-.9-.88-2.113-1.367-3.372-1.353zM16.512 842.93c-2.578.058-4.627 2.186-4.588 4.764.04 2.58 2.15 4.643 4.73 4.624 2.578-.02 4.66-2.115 4.66-4.693-.015-1.26-.528-2.462-1.43-3.342-.9-.88-2.113-1.367-3.372-1.353zm-1.147-566.086c-.044 1.95 1.098 3.735 2.89 4.512 1.79.777 3.872.392 5.267-.972 1.395-1.364 1.826-3.438 1.09-5.245-.737-1.806-2.494-2.988-4.446-2.99-1.26-.013-2.472.474-3.373 1.354-.9.88-1.414 2.083-1.428 3.342zm28.41-24.58c-.05 1.924 1.072 3.687 2.837 4.458 1.765.77 3.82.396 5.2-.948 1.38-1.344 1.807-3.39 1.08-5.174-.724-1.784-2.457-2.95-4.383-2.952-2.582-.03-4.7 2.035-4.736 4.615zm39.25-104.394c-2.54.06-4.558 2.156-4.52 4.698.04 2.54 2.12 4.576 4.663 4.557 2.542-.02 4.592-2.085 4.593-4.627-.013-1.24-.52-2.427-1.408-3.294-.888-.868-2.084-1.348-3.326-1.334zM47.016 34.29c.043-1.926-1.084-3.686-2.85-4.45-1.768-.767-3.823-.387-5.198.962-1.376 1.348-1.797 3.395-1.067 5.177.73 1.78 2.468 2.943 4.393 2.938 2.555-.015 4.626-2.074 4.655-4.628h.067zm-11.79 444.38c-2.544.05-4.57 2.146-4.535 4.69.034 2.543 2.115 4.582 4.658 4.565 2.544-.017 4.597-2.083 4.598-4.627-.014-1.25-.528-2.444-1.428-3.314-.9-.87-2.11-1.343-3.36-1.314h.066zM94.87 816.11c2.543-.05 4.568-2.146 4.534-4.69-.034-2.543-2.114-4.582-4.658-4.565-2.544.017-4.597 2.083-4.597 4.627.035 2.55 2.104 4.6 4.653 4.615l.067.013zM81.386 663.915c-2.544.052-4.57 2.146-4.535 4.69.035 2.543 2.116 4.582 4.66 4.565 2.543-.016 4.597-2.083 4.597-4.627-.03-2.58-2.14-4.65-4.72-4.628zm-8.203-47.375c-2.543.052-4.568 2.146-4.534 4.69.033 2.543 2.113 4.582 4.657 4.565 2.544-.016 4.597-2.083 4.598-4.627-.01-1.24-.515-2.425-1.4-3.294-.886-.868-2.08-1.348-3.322-1.334zm111.075-68.46c3.437-.075 6.17-2.907 6.122-6.344-.05-3.437-2.862-6.19-6.3-6.166-3.436.024-6.21 2.816-6.21 6.253.05 3.48 2.907 6.266 6.388 6.23v.026zm-25.78-477.045c-.055 2.594 1.465 4.963 3.846 5.995 2.38 1.032 5.15.52 7.005-1.293 1.855-1.813 2.43-4.57 1.453-6.973-.976-2.404-3.31-3.98-5.904-3.985-1.68-.022-3.3.625-4.5 1.8-1.2 1.172-1.886 2.775-1.903 4.455zm25.887 816.55c-3.436.074-6.17 2.906-6.12 6.343.047 3.437 2.86 6.19 6.297 6.167 3.437-.024 6.21-2.817 6.212-6.254-.032-1.676-.728-3.27-1.937-4.434-1.208-1.163-2.83-1.8-4.505-1.767l.053-.054zm-70.836-288.09c-3.437.073-6.17 2.905-6.122 6.342.05 3.437 2.86 6.19 6.298 6.167 3.437-.024 6.21-2.817 6.212-6.254-.073-3.48-2.947-6.248-6.43-6.188l.04-.067zm73.09-265.31c-2.58.058-4.63 2.188-4.59 4.768.043 2.58 2.16 4.644 4.74 4.62 2.58-.024 4.657-2.127 4.65-4.707-.072-2.612-2.242-4.675-4.854-4.615l.053-.066zm-30.01-29.997c2.578-.058 4.626-2.186 4.587-4.764-.04-2.58-2.15-4.643-4.73-4.624-2.578.02-4.658 2.115-4.66 4.693.015 1.26.53 2.462 1.43 3.342.9.88 2.113 1.367 3.373 1.353zM96.59 694.792c.044-1.95-1.098-3.735-2.888-4.512-1.79-.777-3.873-.393-5.27.972-1.394 1.364-1.825 3.438-1.088 5.245.736 1.807 2.493 2.99 4.445 2.99 1.27.032 2.5-.447 3.415-1.33.915-.882 1.438-2.094 1.452-3.365h-.066zm64.568 64.313c-2.58.06-4.63 2.19-4.588 4.77.04 2.58 2.158 4.643 4.738 4.62 2.58-.025 4.658-2.128 4.65-4.708-.035-2.59-2.142-4.675-4.734-4.682h-.066zm-21.834-574.7c-2.582.05-4.637 2.177-4.6 4.76.036 2.58 2.15 4.65 4.733 4.627 2.582-.02 4.662-2.124 4.655-4.707-.036-2.612-2.176-4.704-4.788-4.68zM51.776 385.24c.044-1.925-1.083-3.685-2.85-4.45-1.767-.766-3.822-.386-5.198.963-1.375 1.348-1.797 3.395-1.066 5.177.73 1.782 2.467 2.944 4.393 2.94 2.58.02 4.692-2.05 4.72-4.63zm112.89-163.625c-2.544.052-4.57 2.146-4.535 4.69.035 2.543 2.116 4.582 4.66 4.566 2.543-.016 4.596-2.083 4.597-4.626-.037-2.57-2.138-4.63-4.708-4.615l-.015-.015zM141.63 69.5c-2.542.06-4.56 2.16-4.52 4.703.042 2.543 2.128 4.577 4.672 4.553 2.543-.024 4.59-2.097 4.584-4.64-.036-2.58-2.154-4.645-4.735-4.615zm28.664 78.385c-2.54.06-4.56 2.156-4.52 4.698.038 2.542 2.12 4.576 4.66 4.557 2.543-.02 4.594-2.084 4.595-4.626-.012-1.244-.517-2.433-1.405-3.304-.89-.87-2.087-1.352-3.33-1.338v.013zm-7.816 429.976c.038-1.916-1.088-3.666-2.85-4.427-1.76-.76-3.806-.38-5.176.963s-1.79 3.38-1.066 5.157c.725 1.775 2.452 2.936 4.37 2.937 1.24.014 2.436-.466 3.322-1.335.886-.868 1.39-2.053 1.4-3.294zM112.956 52.71c.043-1.927-1.084-3.686-2.85-4.452-1.768-.766-3.823-.385-5.198.963-1.376 1.35-1.797 3.396-1.067 5.178s2.468 2.944 4.394 2.94c2.58.02 4.692-2.05 4.722-4.63zm47.108-40.36c2.543-.052 4.568-2.146 4.534-4.69-.034-2.543-2.114-4.583-4.658-4.566-2.544.017-4.597 2.083-4.598 4.627.03 2.582 2.142 4.652 4.722 4.63zm-37.6 466.32c-2.542.05-4.567 2.146-4.533 4.69.035 2.543 2.116 4.582 4.66 4.565 2.543-.017 4.596-2.083 4.597-4.627-.03-2.58-2.14-4.65-4.722-4.628zm84.868-32.664c-2.545.052-4.57 2.15-4.534 4.694.036 2.545 2.122 4.583 4.667 4.562 2.545-.022 4.596-2.095 4.59-4.64-.02-1.242-.53-2.426-1.42-3.292-.89-.865-2.088-1.34-3.33-1.324h.027zm-77.21-65.54c-2.544.05-4.57 2.145-4.535 4.69.034 2.542 2.114 4.582 4.658 4.565 2.544-.016 4.597-2.082 4.598-4.626-.03-2.58-2.14-4.65-4.722-4.628zm52.016 435.577c2.54-.058 4.56-2.156 4.52-4.697-.038-2.542-2.12-4.577-4.662-4.558-2.542.02-4.593 2.085-4.593 4.627-.004 1.243.488 2.436 1.367 3.314.88.878 2.072 1.37 3.314 1.367l.054-.054zm4.494-141.444c-2.543.05-4.568 2.144-4.534 4.688.034 2.543 2.114 4.583 4.658 4.566 2.544-.017 4.597-2.083 4.598-4.627-.025-1.243-.544-2.425-1.443-3.284-.897-.858-2.102-1.323-3.344-1.29l.066-.054zM160.077 642.2c2.544-.052 4.57-2.146 4.535-4.69-.034-2.543-2.115-4.582-4.66-4.565-2.542.016-4.596 2.083-4.596 4.627.03 2.58 2.14 4.65 4.72 4.628zm468.148 124.8c-2.497.058-4.48 2.12-4.44 4.617.038 2.496 2.084 4.495 4.582 4.476 2.497-.02 4.512-2.05 4.513-4.547-.014-1.223-.514-2.39-1.39-3.244-.876-.853-2.055-1.323-3.278-1.305h.013zm38.266-323.196c-3.375.08-6.054 2.868-6 6.244.053 3.376 2.82 6.077 6.195 6.05 3.376-.025 6.1-2.77 6.1-6.146-.043-3.435-2.86-6.185-6.294-6.148zm40.16-422.734c-3.375.08-6.054 2.868-6 6.244.052 3.376 2.818 6.078 6.194 6.05 3.377-.025 6.1-2.77 6.1-6.145-.043-3.434-2.86-6.185-6.294-6.148zM636.948 316.74c3.377-.074 6.063-2.86 6.015-6.237-.05-3.378-2.814-6.084-6.192-6.06-3.377.024-6.103 2.77-6.104 6.147.018 1.65.69 3.223 1.867 4.376 1.18 1.153 2.767 1.79 4.415 1.773zm.227 232.806c-2.534.058-4.547 2.15-4.508 4.684.04 2.534 2.115 4.563 4.65 4.544 2.534-.02 4.58-2.08 4.58-4.613-.03-2.572-2.136-4.636-4.71-4.614h-.012zm-21.487-331.092c-2.536.052-4.555 2.14-4.52 4.676.033 2.536 2.107 4.57 4.644 4.553 2.536-.017 4.584-2.077 4.584-4.614-.03-2.574-2.135-4.638-4.708-4.616zm11.737-141.11c2.534-.06 4.546-2.15 4.508-4.685-.04-2.535-2.115-4.564-4.65-4.545-2.534.02-4.58 2.08-4.58 4.613.015 1.238.52 2.42 1.405 3.286.886.865 2.08 1.343 3.317 1.33zm3.588 552.174c-2.534.058-4.547 2.15-4.508 4.684.04 2.534 2.115 4.563 4.65 4.544 2.534-.02 4.58-2.08 4.58-4.613-.06-2.558-2.164-4.592-4.722-4.562v-.052zm27.862 24.367c-2.497.06-4.48 2.12-4.44 4.618.038 2.497 2.084 4.496 4.58 4.477 2.5-.02 4.514-2.05 4.515-4.546-.014-1.22-.513-2.386-1.386-3.24-.873-.852-2.05-1.323-3.27-1.31zm33.97 98.15c-2.496.06-4.48 2.122-4.44 4.62.04 2.497 2.084 4.495 4.582 4.476 2.498-.018 4.513-2.048 4.513-4.545.004-1.232-.486-2.414-1.36-3.282-.876-.867-2.062-1.348-3.294-1.333v.066zM652.7 868.314c-2.497.06-4.48 2.12-4.44 4.618.038 2.498 2.083 4.497 4.58 4.478 2.5-.02 4.514-2.05 4.514-4.547.008-1.232-.482-2.416-1.357-3.284-.876-.868-2.064-1.347-3.297-1.33v.067zm-2.294-437.165c.043-1.893-1.065-3.623-2.802-4.377-1.737-.752-3.757-.378-5.11.947-1.352 1.325-1.767 3.338-1.05 5.09.72 1.752 2.427 2.894 4.32 2.89 2.536.022 4.612-2.013 4.642-4.55zm54.03-327.41c-2.5.052-4.488 2.11-4.454 4.61.034 2.5 2.078 4.502 4.578 4.485 2.5-.016 4.517-2.047 4.517-4.547-.03-2.536-2.105-4.57-4.64-4.548zm-8.55 145.153c.044-1.89-1.062-3.62-2.798-4.375-1.735-.754-3.755-.383-5.108.94-1.354 1.322-1.772 3.332-1.058 5.085.714 1.752 2.418 2.898 4.31 2.9 1.22.013 2.396-.458 3.27-1.31.872-.854 1.37-2.02 1.385-3.24zm-12.723 42.08c-2.5.052-4.49 2.11-4.455 4.61.034 2.5 2.08 4.503 4.578 4.486 2.5-.017 4.518-2.048 4.518-4.547-.03-2.537-2.105-4.572-4.64-4.55zm115.516 82.6c.06-2.56-1.437-4.9-3.784-5.92-2.347-1.02-5.078-.52-6.91 1.27-1.83 1.788-2.396 4.507-1.43 6.877.964 2.37 3.268 3.92 5.828 3.922 3.435.036 6.25-2.715 6.295-6.15zm-25.342 456.878c-3.376.08-6.055 2.868-6 6.244.052 3.376 2.818 6.077 6.194 6.05 3.377-.025 6.1-2.77 6.1-6.145-.043-3.435-2.86-6.186-6.294-6.15zm19.14-797.08c3.375-.08 6.054-2.867 6-6.243-.053-3.376-2.82-6.077-6.195-6.05-3.377.025-6.1 2.77-6.1 6.146.016 1.65.69 3.227 1.87 4.38 1.182 1.154 2.773 1.79 4.424 1.77zm-63.38 277.222c.053-2.552-1.442-4.883-3.785-5.898-2.343-1.014-5.066-.51-6.89 1.275-1.825 1.786-2.387 4.498-1.423 6.862.964 2.363 3.262 3.908 5.815 3.91 1.65.017 3.237-.62 4.415-1.774 1.178-1.153 1.85-2.727 1.867-4.376zm65.58 257.935c-2.536.05-4.555 2.14-4.52 4.676.033 2.537 2.107 4.57 4.644 4.554 2.536-.017 4.583-2.078 4.584-4.614-.03-2.573-2.135-4.637-4.708-4.615zm-24.755 43.414c.044-1.92-1.08-3.674-2.84-4.44-1.76-.763-3.808-.386-5.18.956-1.373 1.34-1.797 3.38-1.073 5.157.725 1.778 2.453 2.94 4.372 2.94 1.247.022 2.45-.457 3.343-1.33.892-.87 1.398-2.063 1.405-3.31l-.027.026zm-68.408-393.46c-2.534.067-4.54 2.164-4.494 4.698.047 2.535 2.13 4.557 4.663 4.53 2.534-.025 4.573-2.09 4.567-4.625-.01-1.24-.514-2.426-1.4-3.294-.886-.87-2.08-1.35-3.322-1.336l-.013.027zm68.235-58.684c2.534-.06 4.546-2.15 4.508-4.684-.04-2.535-2.115-4.563-4.65-4.544-2.534.02-4.58 2.078-4.58 4.613.01 1.243.517 2.43 1.406 3.295.89.867 2.088 1.342 3.33 1.32h-.014zm-16.805 560.777c.043-1.92-1.08-3.673-2.84-4.437-1.76-.765-3.808-.388-5.18.954-1.373 1.34-1.797 3.38-1.073 5.158.724 1.777 2.452 2.94 4.37 2.94 1.24.014 2.432-.464 3.318-1.33.885-.865 1.39-2.047 1.405-3.285zm-95.484-188.46c2.498-.058 4.48-2.12 4.442-4.617-.04-2.497-2.085-4.496-4.582-4.477-2.498.018-4.513 2.048-4.514 4.545.014 1.22.513 2.386 1.386 3.24.873.852 2.05 1.323 3.27 1.31zm111.05 151.862c-.044 1.892 1.062 3.622 2.798 4.376 1.735.755 3.755.383 5.108-.94 1.354-1.32 1.772-3.332 1.058-5.084-.714-1.753-2.417-2.9-4.31-2.9-1.22-.013-2.396.458-3.27 1.31-.872.854-1.37 2.02-1.384 3.24zm-18.02 145.1c-2.497.058-4.48 2.12-4.44 4.617.04 2.497 2.084 4.496 4.582 4.477 2.498-.02 4.513-2.05 4.513-4.548-.014-1.22-.512-2.385-1.385-3.238-.873-.853-2.05-1.324-3.27-1.31zm28.183-77.105c-2.497.058-4.48 2.12-4.44 4.617.038 2.498 2.083 4.497 4.58 4.478 2.5-.02 4.514-2.05 4.515-4.547-.014-1.22-.513-2.385-1.386-3.238-.873-.853-2.05-1.324-3.27-1.31zm-12.337-409.316c2.497-.06 4.48-2.12 4.44-4.618-.038-2.497-2.084-4.496-4.582-4.477-2.498.018-4.513 2.048-4.513 4.546.01 1.226.512 2.397 1.392 3.25.88.856 2.064 1.323 3.29 1.298h-.026zM717.6 850.147c-2.497.06-4.48 2.12-4.44 4.618.038 2.498 2.084 4.496 4.582 4.477 2.497-.02 4.512-2.05 4.513-4.546-.03-2.53-2.097-4.563-4.628-4.55h-.027zm51.003 44.228c-2.5.05-4.488 2.11-4.454 4.61.033 2.498 2.077 4.502 4.577 4.485 2.5-.017 4.517-2.048 4.517-4.547-.022-2.53-2.083-4.57-4.614-4.562l-.027.015zM736.26 431.148c.043-1.89-1.063-3.62-2.8-4.375-1.734-.755-3.754-.383-5.107.94-1.354 1.322-1.772 3.332-1.058 5.084.714 1.753 2.417 2.9 4.31 2.9 1.22.014 2.396-.458 3.27-1.31.872-.853 1.37-2.018 1.384-3.24zm78.838 27.596c-2.5.05-4.49 2.11-4.455 4.61.034 2.498 2.08 4.502 4.578 4.485 2.5-.018 4.52-2.05 4.52-4.548-.004-1.225-.496-2.398-1.367-3.26-.872-.86-2.05-1.34-3.275-1.328v.04zm-75.93 64.433c-2.5.052-4.49 2.11-4.455 4.61.034 2.5 2.078 4.502 4.578 4.486 2.5-.017 4.518-2.048 4.518-4.547-.03-2.537-2.105-4.57-4.64-4.55zm51.108-410.343c2.498-.058 4.48-2.12 4.44-4.617-.038-2.498-2.083-4.496-4.58-4.477-2.5.02-4.514 2.05-4.514 4.546.014 1.22.512 2.386 1.385 3.238.873.853 2.05 1.325 3.27 1.31zm4.402 120.92c-2.5.05-4.49 2.108-4.454 4.608.034 2.5 2.078 4.503 4.578 4.486 2.5-.017 4.517-2.048 4.517-4.547-.03-2.535-2.106-4.57-4.642-4.547zM768.63 283.9c2.497-.06 4.48-2.12 4.44-4.618-.038-2.497-2.084-4.496-4.582-4.477-2.498.02-4.513 2.05-4.513 4.547.014 1.22.512 2.385 1.385 3.238.873.853 2.05 1.324 3.27 1.31zm70.862 483.1c-2.5.05-4.488 2.11-4.454 4.608.034 2.5 2.078 4.503 4.578 4.486 2.5-.016 4.517-2.047 4.517-4.547-.03-2.537-2.105-4.57-4.64-4.55zm38.265-323.196c-3.377.073-6.063 2.857-6.014 6.235.048 3.38 2.813 6.085 6.19 6.06 3.38-.023 6.106-2.767 6.106-6.146-.045-3.43-2.853-6.178-6.283-6.148zm40.146-422.734c-3.375.08-6.054 2.868-6 6.244.053 3.376 2.82 6.078 6.195 6.05 3.376-.025 6.1-2.77 6.1-6.145-.017-1.65-.69-3.226-1.87-4.38-1.182-1.153-2.774-1.79-4.425-1.768zM848.228 316.74c3.376-.082 6.055-2.87 6-6.245-.052-3.376-2.818-6.078-6.194-6.05-3.377.025-6.1 2.77-6.1 6.145.016 1.65.69 3.227 1.87 4.38 1.182 1.154 2.773 1.79 4.424 1.77zm.227 232.806c-2.536.05-4.555 2.14-4.52 4.676.033 2.536 2.107 4.57 4.644 4.552 2.535-.016 4.582-2.077 4.583-4.613-.03-2.572-2.135-4.636-4.708-4.614zm-21.5-331.092c-2.534.06-4.547 2.15-4.508 4.685.04 2.533 2.115 4.562 4.65 4.543 2.534-.02 4.58-2.08 4.58-4.614-.015-1.24-.52-2.42-1.406-3.286-.884-.866-2.077-1.344-3.315-1.33zm11.737-141.11c2.534-.06 4.546-2.15 4.507-4.685-.04-2.535-2.115-4.564-4.65-4.545-2.534.02-4.58 2.08-4.58 4.613.014 1.238.52 2.42 1.405 3.286.886.865 2.08 1.343 3.317 1.33zm3.588 552.174c-2.536.05-4.555 2.14-4.52 4.675.033 2.537 2.107 4.57 4.643 4.553 2.537-.017 4.584-2.077 4.585-4.613-.06-2.553-2.156-4.584-4.708-4.562v-.052zm27.875 24.367c-2.497.06-4.48 2.12-4.44 4.618.038 2.497 2.084 4.496 4.58 4.477 2.5-.02 4.514-2.05 4.515-4.546-.014-1.22-.513-2.386-1.386-3.24-.872-.852-2.05-1.323-3.27-1.31zm33.957 98.15c-2.497.06-4.48 2.122-4.44 4.62.038 2.497 2.084 4.495 4.582 4.476 2.498-.018 4.513-2.048 4.513-4.545.004-1.232-.487-2.414-1.362-3.282-.874-.867-2.06-1.348-3.293-1.333v.066zm-40.08 116.212c-2.496.058-4.48 2.12-4.44 4.617.04 2.498 2.085 4.496 4.583 4.477 2.497-.018 4.512-2.048 4.513-4.545-.014-1.22-.513-2.386-1.385-3.24-.873-.852-2.05-1.323-3.27-1.308zm-2.36-437.1c.044-1.89-1.062-3.62-2.798-4.374-1.735-.755-3.755-.383-5.108.94-1.354 1.322-1.772 3.332-1.058 5.084.714 1.753 2.417 2.9 4.31 2.9 1.22.014 2.396-.458 3.27-1.31.872-.853 1.37-2.018 1.384-3.24zm54.03-327.41c-2.496.06-4.48 2.12-4.44 4.62.04 2.496 2.084 4.495 4.582 4.476 2.498-.02 4.513-2.05 4.514-4.547-.014-1.22-.513-2.385-1.386-3.238-.873-.853-2.05-1.324-3.27-1.31zm-8.55 145.154c.045-1.892-1.063-3.623-2.8-4.376-1.737-.754-3.758-.38-5.11.945-1.352 1.325-1.767 3.337-1.05 5.09.72 1.75 2.426 2.894 4.32 2.89 2.536.02 4.612-2.013 4.64-4.55zm-12.723 42.08c-2.5.052-4.49 2.11-4.455 4.61.034 2.5 2.08 4.503 4.578 4.486 2.5-.017 4.517-2.048 4.518-4.547-.028-2.537-2.104-4.572-4.64-4.55zm115.556 82.6c.06-2.56-1.436-4.9-3.783-5.92-2.347-1.02-5.078-.52-6.91 1.27-1.83 1.788-2.396 4.507-1.43 6.877.964 2.37 3.268 3.92 5.828 3.922 3.435.036 6.252-2.715 6.296-6.15zm-25.408 456.878c-3.378.073-6.063 2.858-6.015 6.235.05 3.378 2.814 6.084 6.192 6.06 3.378-.023 6.104-2.768 6.105-6.146-.044-3.43-2.852-6.18-6.282-6.15zm19.18-797.08c3.367-.108 6.02-2.908 5.946-6.276-.072-3.37-2.842-6.052-6.21-6.016-3.37.035-6.084 2.775-6.085 6.145.016 1.66.697 3.245 1.89 4.4 1.192 1.155 2.797 1.785 4.457 1.75zm2.213 535.157c-2.533.06-4.545 2.15-4.506 4.684.04 2.534 2.114 4.562 4.65 4.543 2.533-.02 4.578-2.078 4.58-4.613-.015-1.238-.52-2.42-1.406-3.285-.886-.866-2.08-1.344-3.317-1.33zm-24.753 43.414c.043-1.92-1.08-3.674-2.84-4.44-1.76-.763-3.808-.386-5.18.956-1.373 1.34-1.797 3.38-1.073 5.157.724 1.778 2.452 2.94 4.37 2.94 1.244.015 2.44-.467 3.327-1.338.888-.87 1.39-2.06 1.397-3.303v.027zm-68.422-393.46c-2.536.06-4.55 2.154-4.507 4.69.04 2.536 2.12 4.563 4.658 4.54 2.536-.025 4.577-2.09 4.57-4.627-.01-1.238-.512-2.422-1.395-3.29-.882-.868-2.073-1.35-3.31-1.34l-.015.028zm68.235-58.684c2.534-.06 4.546-2.15 4.508-4.684-.04-2.535-2.115-4.563-4.65-4.544-2.534.02-4.58 2.078-4.58 4.613.01 1.243.517 2.43 1.406 3.295.89.867 2.088 1.342 3.33 1.32h-.014zm-16.805 560.777c.043-1.92-1.08-3.675-2.843-4.44-1.762-.762-3.81-.383-5.183.962-1.372 1.344-1.793 3.385-1.064 5.162.728 1.777 2.46 2.936 4.38 2.93 1.237.015 2.43-.463 3.312-1.33.884-.865 1.386-2.047 1.397-3.284zm-95.497-188.46c2.497-.058 4.48-2.12 4.44-4.617-.038-2.497-2.084-4.496-4.582-4.477-2.497.018-4.512 2.048-4.513 4.545.014 1.22.513 2.386 1.385 3.24.873.852 2.05 1.323 3.27 1.31zM979.79 683.976c-.044 1.892 1.063 3.622 2.798 4.376 1.735.755 3.755.383 5.108-.94 1.354-1.32 1.772-3.332 1.058-5.084-.714-1.753-2.417-2.9-4.31-2.9-1.22-.013-2.396.458-3.27 1.31-.872.854-1.37 2.02-1.384 3.24zm-18.02 145.1c-2.496.058-4.48 2.12-4.44 4.617.04 2.497 2.084 4.496 4.582 4.477 2.498-.02 4.513-2.05 4.513-4.548-.014-1.22-.512-2.385-1.385-3.238-.873-.853-2.05-1.324-3.27-1.31zm28.196-77.105c-2.497.058-4.48 2.12-4.44 4.617.038 2.498 2.084 4.497 4.582 4.478 2.497-.02 4.512-2.05 4.513-4.547-.013-1.22-.51-2.385-1.384-3.238-.873-.853-2.05-1.324-3.27-1.31zM977.63 342.654c2.496-.06 4.48-2.12 4.44-4.618-.04-2.497-2.085-4.496-4.582-4.477-2.498.018-4.513 2.048-4.514 4.546.014 1.222.514 2.39 1.39 3.243.876.852 2.056 1.322 3.278 1.304h-.013zm-48.736 507.493c-2.498.06-4.48 2.12-4.44 4.618.038 2.498 2.083 4.496 4.58 4.477 2.5-.02 4.514-2.05 4.514-4.546-.03-2.537-2.105-4.57-4.64-4.55h-.014zm51.002 44.228c-2.497.058-4.48 2.12-4.44 4.617.038 2.498 2.084 4.497 4.582 4.478 2.498-.02 4.513-2.05 4.513-4.547-.01-1.22-.504-2.387-1.375-3.242-.87-.855-2.045-1.33-3.265-1.32l-.014.015zm-32.37-463.227c.044-1.89-1.063-3.62-2.798-4.375-1.736-.755-3.755-.383-5.108.94-1.354 1.322-1.772 3.332-1.058 5.084.713 1.753 2.417 2.9 4.31 2.9 1.22.014 2.396-.458 3.27-1.31.872-.853 1.37-2.018 1.384-3.24zm78.852 27.596c-2.5.05-4.49 2.11-4.455 4.61.034 2.498 2.08 4.502 4.58 4.485 2.498-.018 4.516-2.05 4.516-4.548-.004-1.225-.496-2.398-1.367-3.26-.872-.86-2.05-1.34-3.275-1.328v.04zm-75.944 64.433c-2.5.052-4.49 2.11-4.455 4.61.033 2.5 2.078 4.502 4.578 4.486 2.5-.017 4.517-2.048 4.517-4.547-.03-2.537-2.105-4.57-4.64-4.55zm51.123-410.343c2.5-.05 4.488-2.11 4.454-4.61-.033-2.498-2.078-4.5-4.577-4.485-2.5.016-4.517 2.047-4.518 4.546.03 2.536 2.105 4.57 4.642 4.548zm4.414 120.92c-2.496.057-4.478 2.12-4.44 4.616.04 2.498 2.085 4.497 4.583 4.477 2.497-.02 4.512-2.048 4.513-4.546-.014-1.22-.512-2.384-1.385-3.237-.872-.853-2.048-1.325-3.27-1.31zM979.91 283.9c2.497-.06 4.48-2.12 4.44-4.618-.038-2.497-2.084-4.496-4.582-4.477-2.497.02-4.512 2.05-4.513 4.547.014 1.22.512 2.385 1.385 3.238.873.853 2.05 1.324 3.27 1.31zM399.406 800.518c.038-1.92-1.09-3.676-2.854-4.44-1.764-.762-3.815-.382-5.19.96-1.374 1.345-1.8 3.386-1.077 5.168.723 1.78 2.45 2.948 4.373 2.954 1.245.014 2.445-.467 3.336-1.337.89-.87 1.398-2.06 1.412-3.305zm-37.345-327.89c.06-2.607-1.464-4.99-3.856-6.03s-5.175-.528-7.04 1.295c-1.865 1.823-2.442 4.593-1.458 7.008.984 2.417 3.332 3.996 5.94 3.997 3.5.037 6.37-2.768 6.415-6.27zM321.13 41.612c.06-2.61-1.466-4.993-3.86-6.032-2.393-1.04-5.178-.524-7.042 1.3-1.864 1.827-2.437 4.6-1.45 7.014.99 2.415 3.34 3.99 5.95 3.987 3.496.03 6.358-2.772 6.402-6.268zM385.762 336.8c3.444-.075 6.183-2.913 6.135-6.357-.05-3.444-2.867-6.204-6.312-6.18-3.444.024-6.224 2.822-6.225 6.267.044 3.496 2.906 6.298 6.402 6.27zm4.575 242.075c.05-1.958-1.093-3.75-2.888-4.533-1.796-.783-3.886-.4-5.288.966-1.402 1.367-1.836 3.447-1.1 5.26.74 1.815 2.502 3 4.46 3.002 2.624.03 4.778-2.07 4.815-4.695zm12.297-337.573c-.043 1.956 1.102 3.744 2.897 4.523 1.796.78 3.885.394 5.284-.974 1.4-1.367 1.83-3.446 1.092-5.26-.738-1.81-2.5-2.996-4.457-2.996-1.264-.015-2.48.473-3.384 1.356-.903.883-1.418 2.09-1.432 3.352zm-7.162-148.594c2.587-.05 4.648-2.18 4.614-4.77-.034-2.587-2.15-4.662-4.738-4.645-2.588.017-4.677 2.12-4.678 4.707.03 2.624 2.177 4.73 4.802 4.708zm-3.588 563.07c-2.586.06-4.64 2.193-4.6 4.78.038 2.585 2.155 4.655 4.74 4.636 2.587-.02 4.674-2.12 4.675-4.706-.015-1.263-.53-2.47-1.434-3.352-.903-.883-2.12-1.37-3.382-1.357zm-23.674 29.344c.043-1.93-1.086-3.693-2.856-4.462-1.77-.77-3.83-.39-5.21.96s-1.807 3.4-1.078 5.187c.728 1.787 2.465 2.956 4.396 2.956 2.567-.007 4.652-2.074 4.68-4.64h.068zm-39.44 95.47c-2.55.06-4.575 2.165-4.534 4.716.042 2.55 2.134 4.59 4.685 4.566 2.552-.024 4.605-2.103 4.6-4.654-.015-1.244-.524-2.43-1.415-3.3-.89-.868-2.09-1.346-3.334-1.328zm40.92 118.558c-2.55.058-4.573 2.16-4.534 4.71.04 2.55 2.126 4.59 4.676 4.57 2.55-.018 4.606-2.09 4.606-4.64-.003-1.25-.507-2.447-1.4-3.324-.89-.877-2.097-1.36-3.348-1.343v.027zm7.082-450.343c-2.548.06-4.573 2.162-4.534 4.71.04 2.55 2.127 4.59 4.676 4.572 2.55-.02 4.606-2.092 4.607-4.64-.003-1.25-.505-2.445-1.394-3.322-.89-.877-2.092-1.362-3.34-1.347l-.014.027zm-46.36-185.792c-2.55.06-4.574 2.162-4.535 4.71.04 2.55 2.126 4.59 4.676 4.572 2.55-.02 4.606-2.09 4.606-4.64-.008-1.248-.51-2.44-1.4-3.317-.888-.876-2.088-1.362-3.336-1.35l-.013.025zm8.228 47.55c-2.548.057-4.573 2.16-4.534 4.71.04 2.55 2.127 4.59 4.676 4.57 2.55-.02 4.606-2.09 4.607-4.64-.008-1.247-.512-2.44-1.4-3.317-.888-.875-2.09-1.362-3.336-1.35l-.014.026zm-111.408 77.903c-3.442.08-6.175 2.922-6.12 6.364.052 3.443 2.872 6.198 6.314 6.172 3.443-.027 6.22-2.824 6.22-6.267-.016-1.683-.703-3.29-1.906-4.465-1.204-1.176-2.826-1.825-4.508-1.804zm25.94 478.39c.06-2.606-1.464-4.99-3.856-6.03-2.39-1.04-5.175-.526-7.04 1.296-1.865 1.823-2.442 4.593-1.458 7.01.984 2.414 3.332 3.993 5.94 3.994 3.5.037 6.37-2.767 6.415-6.27zM227.206 47.935c3.442-.08 6.175-2.922 6.12-6.364-.052-3.443-2.872-6.198-6.314-6.17-3.442.025-6.22 2.822-6.22 6.265.066 3.478 2.923 6.253 6.402 6.216l.013.054zm-2.254 545.612c-2.584.06-4.64 2.192-4.6 4.778.04 2.586 2.156 4.656 4.743 4.637 2.586-.018 4.672-2.12 4.673-4.705 0-1.277-.512-2.5-1.423-3.396-.91-.896-2.142-1.388-3.42-1.367l.028.053zm30.037 39.56c-2.585.058-4.64 2.19-4.6 4.777.038 2.586 2.156 4.657 4.742 4.637 2.585-.02 4.67-2.12 4.672-4.706 0-1.275-.51-2.496-1.418-3.39-.907-.896-2.136-1.39-3.41-1.372l.013.054zm64.874-396.512c-2.584.058-4.64 2.19-4.6 4.777.04 2.587 2.156 4.658 4.743 4.64 2.586-.02 4.672-2.122 4.673-4.708-.01-1.264-.525-2.472-1.428-3.356-.904-.883-2.123-1.37-3.387-1.352zm-69.568-59.806c2.588-.05 4.65-2.18 4.615-4.77-.034-2.587-2.15-4.662-4.738-4.645-2.59.016-4.68 2.12-4.68 4.707.015 1.27.536 2.48 1.447 3.366.912.884 2.14 1.367 3.41 1.342h-.055zm21.954 567.033c-2.585.06-4.64 2.192-4.6 4.778.038 2.586 2.155 4.657 4.742 4.637 2.586-.02 4.672-2.12 4.673-4.706-.028-2.61-2.152-4.71-4.76-4.71h-.054zm87.8-192.06c-.048 1.93 1.078 3.698 2.848 4.47 1.77.774 3.83.398 5.214-.95 1.383-1.348 1.812-3.4 1.084-5.188-.727-1.79-2.465-2.96-4.397-2.96-2.562.007-4.645 2.066-4.68 4.628h-.068zm-113.22 164.052c2.55-.052 4.58-2.152 4.546-4.703-.034-2.552-2.12-4.597-4.67-4.58-2.552.017-4.612 2.09-4.612 4.64 0 1.262.507 2.47 1.408 3.353.9.884 2.12 1.367 3.38 1.342l-.053-.053zm23.113 143.312c-2.55.058-4.574 2.162-4.536 4.71.04 2.55 2.127 4.59 4.676 4.57 2.55-.018 4.606-2.09 4.607-4.64-.058-2.55-2.143-4.588-4.695-4.587l-.053-.053zm-24.01-73.984c.044-1.93-1.085-3.693-2.855-4.462-1.77-.768-3.83-.39-5.21.96s-1.806 3.4-1.078 5.187c.728 1.787 2.466 2.956 4.396 2.957 1.245.028 2.45-.44 3.35-1.3.902-.86 1.423-2.043 1.45-3.288l-.052-.054zm3.082-426.6c-.043 1.928 1.086 3.692 2.856 4.46 1.77.77 3.83.39 5.21-.96 1.38-1.348 1.806-3.4 1.078-5.186-.728-1.788-2.466-2.956-4.396-2.957-2.587.008-4.68 2.107-4.68 4.695l-.068-.053zm54.484 522.084c-2.55.058-4.573 2.162-4.534 4.71.04 2.55 2.126 4.59 4.675 4.57 2.55-.018 4.606-2.09 4.607-4.64-.01-1.245-.517-2.436-1.41-3.307-.89-.87-2.092-1.35-3.338-1.333zm-52.017 45.094c-2.55.05-4.582 2.152-4.548 4.702.034 2.55 2.12 4.597 4.67 4.58 2.552-.017 4.612-2.09 4.612-4.64-.043-2.567-2.14-4.623-4.708-4.615l-.027-.027zm37.745-476.964c-2.55.06-4.573 2.162-4.534 4.71.04 2.55 2.127 4.59 4.676 4.57 2.55-.018 4.606-2.09 4.607-4.64-.044-2.57-2.15-4.628-4.722-4.613l-.025-.026zm-85.12 32.77c-2.553.052-4.585 2.155-4.548 4.707.036 2.554 2.128 4.598 4.68 4.576 2.553-.022 4.61-2.1 4.602-4.654-.044-2.564-2.144-4.616-4.71-4.6l-.025-.028zm77.357 65.674c-2.548.06-4.573 2.162-4.534 4.71.04 2.55 2.126 4.59 4.676 4.572 2.55-.02 4.606-2.09 4.606-4.64-.02-2.567-2.1-4.64-4.668-4.655l-.08.013zm-52.03-427.575c-2.548.06-4.573 2.162-4.534 4.71.04 2.55 2.127 4.59 4.676 4.572 2.55-.02 4.606-2.09 4.607-4.64-.013-1.245-.522-2.434-1.412-3.305-.89-.87-2.09-1.35-3.335-1.337zm-4.508 141.872c2.55-.052 4.582-2.152 4.548-4.703-.034-2.55-2.12-4.596-4.67-4.58-2.553.018-4.612 2.09-4.612 4.64.01 1.245.515 2.434 1.404 3.305.888.87 2.087 1.352 3.33 1.338zm26.582 32.543c-2.55.052-4.582 2.152-4.548 4.703.035 2.552 2.12 4.597 4.672 4.58 2.55-.017 4.61-2.09 4.61-4.64-.028-2.588-2.146-4.664-4.734-4.642zm143.7-162.118c-.044 1.892 1.062 3.622 2.797 4.376 1.736.754 3.755.383 5.11-.94 1.352-1.322 1.77-3.332 1.056-5.085-.714-1.75-2.418-2.897-4.31-2.898-1.22-.014-2.397.457-3.27 1.31-.873.853-1.37 2.018-1.385 3.238zm42.932 315.447c-3.377.073-6.063 2.858-6.014 6.235.048 3.378 2.813 6.084 6.19 6.06 3.38-.023 6.106-2.768 6.106-6.147-.017-1.648-.69-3.222-1.867-4.375-1.178-1.153-2.766-1.79-4.415-1.773zM478.285 870.1c-3.378.074-6.064 2.858-6.015 6.236.05 3.378 2.813 6.084 6.19 6.06 3.38-.024 6.106-2.77 6.106-6.147-.014-1.654-.686-3.233-1.867-4.39-1.182-1.156-2.776-1.794-4.43-1.773l.015.013zm-69.69-283.37c-3.375.08-6.054 2.87-6 6.245.053 3.376 2.82 6.077 6.195 6.05 3.377-.025 6.1-2.77 6.1-6.146-.016-1.65-.69-3.227-1.87-4.38-1.182-1.154-2.773-1.79-4.424-1.77zm.228-232.806c2.534-.06 4.546-2.15 4.507-4.684-.04-2.535-2.114-4.563-4.65-4.544-2.533.02-4.578 2.08-4.58 4.613.012 1.238.516 2.422 1.402 3.288.886.867 2.08 1.344 3.32 1.326zM392.043 680.4c.044-1.92-1.08-3.674-2.842-4.438-1.76-.764-3.81-.384-5.18.96-1.373 1.344-1.793 3.385-1.065 5.162.728 1.777 2.46 2.936 4.38 2.93 1.238.015 2.43-.463 3.313-1.33.883-.865 1.385-2.047 1.396-3.284zm7.016 145.727c-2.536.05-4.556 2.14-4.522 4.675.034 2.536 2.11 4.57 4.645 4.553 2.537-.017 4.584-2.077 4.585-4.614-.03-2.572-2.136-4.636-4.71-4.613zm8.295-556.856c.044-1.918-1.08-3.672-2.84-4.437-1.76-.764-3.808-.387-5.18.954-1.373 1.342-1.797 3.38-1.072 5.158.724 1.778 2.452 2.94 4.37 2.94 1.24.018 2.438-.46 3.326-1.324.888-.865 1.395-2.05 1.41-3.29h-.015zm18.513-24.18c-.043 1.89 1.063 3.62 2.798 4.375 1.736.755 3.755.383 5.11-.94 1.352-1.322 1.77-3.332 1.056-5.085-.713-1.752-2.417-2.898-4.31-2.9-1.22-.013-2.396.458-3.27 1.31-.872.854-1.37 2.02-1.384 3.24zm38.68-102.7c-2.498.06-4.48 2.12-4.442 4.618.04 2.497 2.085 4.496 4.582 4.477 2.498-.02 4.513-2.05 4.514-4.546-.018-1.23-.525-2.4-1.41-3.25-.883-.852-2.07-1.315-3.3-1.286l.055-.014zM429 30.675c.044-1.892-1.063-3.62-2.798-4.376-1.736-.755-3.755-.383-5.108.94-1.354 1.32-1.772 3.332-1.058 5.084.713 1.753 2.417 2.9 4.31 2.9 1.22.013 2.396-.458 3.27-1.31.872-.854 1.37-2.018 1.384-3.24zM417.4 467.813c-2.5.06-4.48 2.12-4.442 4.618.04 2.498 2.084 4.497 4.582 4.478 2.498-.02 4.513-2.05 4.513-4.547-.014-1.22-.512-2.384-1.385-3.237-.873-.853-2.05-1.324-3.27-1.31zm58.684 331.92c2.497-.06 4.48-2.122 4.44-4.62-.038-2.497-2.084-4.495-4.582-4.476-2.497.02-4.512 2.05-4.513 4.546.036 2.53 2.11 4.557 4.64 4.535l.014.014zM462.88 650.03c-2.497.06-4.48 2.12-4.44 4.618.038 2.498 2.083 4.497 4.58 4.478 2.5-.02 4.514-2.05 4.514-4.547-.01-1.224-.507-2.392-1.38-3.248-.874-.856-2.052-1.33-3.274-1.314v.013zm-8.07-46.68c-2.497.058-4.48 2.12-4.44 4.617.038 2.498 2.084 4.496 4.582 4.477 2.498-.02 4.513-2.05 4.513-4.546-.05-2.53-2.137-4.546-4.668-4.51l.013-.04zm109.275-67.355c3.377-.073 6.063-2.858 6.015-6.236-.05-3.38-2.814-6.085-6.192-6.06-3.378.023-6.104 2.768-6.105 6.146.003 1.656.667 3.24 1.844 4.405 1.177 1.166 2.77 1.812 4.425 1.798l.013-.053zM538.597 66.86c-.06 2.56 1.437 4.9 3.786 5.92 2.348 1.02 5.08.517 6.91-1.274 1.83-1.792 2.394-4.513 1.424-6.883-.97-2.37-3.277-3.916-5.838-3.912-3.43-.028-6.24 2.72-6.283 6.15zm25.475 803.227c-3.376.08-6.055 2.868-6.002 6.244.054 3.377 2.82 6.08 6.196 6.052 3.376-.026 6.1-2.77 6.1-6.146-.036-3.417-2.824-6.164-6.24-6.15h-.054zM494.45 586.73c-3.378.074-6.064 2.86-6.015 6.236.05 3.378 2.813 6.084 6.19 6.06 3.38-.023 6.106-2.768 6.107-6.147-.044-3.43-2.853-6.18-6.282-6.15zm71.89-260.948c-2.537.05-4.556 2.14-4.522 4.675.034 2.537 2.11 4.57 4.645 4.553 2.536-.017 4.584-2.077 4.584-4.613-.03-2.573-2.135-4.638-4.708-4.615zm-29.464-29.61c2.534-.058 4.547-2.15 4.508-4.684-.04-2.534-2.115-4.563-4.65-4.544-2.534.02-4.578 2.08-4.58 4.614.01 1.24.516 2.423 1.402 3.29.886.865 2.08 1.342 3.32 1.324zM477.898 680.4c.043-1.918-1.08-3.672-2.84-4.437-1.76-.764-3.808-.387-5.18.954-1.373 1.342-1.797 3.38-1.073 5.158.724 1.778 2.452 2.94 4.37 2.94 1.24.014 2.432-.464 3.318-1.33.885-.865 1.39-2.046 1.405-3.285zm63.513 63.26c-2.535.052-4.554 2.14-4.52 4.676.034 2.536 2.11 4.57 4.645 4.553 2.536-.018 4.584-2.078 4.584-4.615-.03-2.573-2.136-4.637-4.71-4.615zm-21.486-565.365c-2.534.06-4.546 2.15-4.507 4.684.04 2.534 2.114 4.562 4.65 4.543 2.533-.02 4.578-2.078 4.58-4.613-.015-1.238-.52-2.42-1.406-3.285-.885-.866-2.078-1.344-3.316-1.33zm-86.174 197.61c.044-1.893-1.062-3.622-2.798-4.377-1.735-.754-3.755-.382-5.108.94-1.354 1.323-1.772 3.333-1.058 5.085.714 1.753 2.417 2.9 4.31 2.9 1.22.014 2.396-.458 3.27-1.31.872-.854 1.37-2.018 1.384-3.24zm111.062-160.958c-2.497.05-4.486 2.107-4.454 4.604.03 2.5 2.07 4.504 4.57 4.492 2.497-.012 4.518-2.036 4.526-4.534-.03-2.538-2.103-4.576-4.642-4.56zM522.138 65.3c-2.497.058-4.48 2.12-4.44 4.617.038 2.497 2.084 4.496 4.582 4.477 2.498-.02 4.512-2.05 4.513-4.547-.014-1.22-.512-2.385-1.385-3.238-.873-.854-2.05-1.325-3.27-1.31zm28.196 77.104c-2.497.058-4.48 2.12-4.44 4.617.038 2.5 2.084 4.498 4.58 4.48 2.5-.02 4.514-2.05 4.515-4.548-.015-1.22-.514-2.385-1.387-3.238-.873-.853-2.05-1.324-3.27-1.31zm-7.736 422.96c.044-1.893-1.064-3.624-2.8-4.377-1.738-.753-3.76-.38-5.11.946-1.354 1.325-1.77 3.337-1.05 5.09.717 1.752 2.425 2.894 4.32 2.89 2.535.02 4.61-2.013 4.64-4.55zm-48.682-516.59c.043-1.89-1.06-3.62-2.795-4.374-1.733-.755-3.75-.386-5.106.933-1.354 1.32-1.776 3.328-1.066 5.08.71 1.754 2.41 2.903 4.3 2.91 1.223.017 2.402-.453 3.278-1.306.876-.853 1.376-2.02 1.39-3.243zm46.348-39.68c2.497-.058 4.48-2.12 4.44-4.617-.038-2.497-2.084-4.496-4.58-4.477-2.5.02-4.514 2.05-4.515 4.547.01 1.225.508 2.395 1.385 3.25.876.858 2.057 1.33 3.282 1.31l-.013-.012zm-37.012 458.72c-2.5.05-4.488 2.11-4.454 4.608.034 2.5 2.08 4.503 4.578 4.486 2.5-.016 4.517-2.047 4.518-4.547-.01-1.218-.506-2.383-1.377-3.236-.87-.853-2.045-1.325-3.265-1.31zm83.493-32.144c-2.497.058-4.48 2.12-4.44 4.617.038 2.498 2.084 4.497 4.582 4.478 2.498-.02 4.513-2.05 4.513-4.547-.014-1.22-.512-2.385-1.385-3.238-.873-.853-2.05-1.324-3.27-1.31zm-75.93-64.407c-2.497.058-4.48 2.12-4.44 4.617.038 2.498 2.083 4.497 4.58 4.478 2.5-.02 4.514-2.05 4.515-4.547-.01-1.222-.508-2.39-1.38-3.246-.874-.856-2.053-1.33-3.275-1.315v.013zm51.123 428.47c2.497-.06 4.48-2.122 4.44-4.62-.038-2.497-2.084-4.495-4.582-4.476-2.498.02-4.512 2.05-4.513 4.546.036 2.53 2.11 4.557 4.64 4.535l.015.014zm4.4-139.18c-2.498.053-4.487 2.11-4.453 4.61.034 2.5 2.078 4.503 4.578 4.486 2.5-.017 4.517-2.048 4.517-4.548-.03-2.536-2.105-4.57-4.64-4.548zm-26.06-31.916c2.497-.058 4.48-2.12 4.44-4.617-.04-2.498-2.084-4.496-4.582-4.477-2.498.02-4.513 2.05-4.513 4.546.007 1.224.502 2.396 1.376 3.255.872.858 2.052 1.333 3.277 1.32v-.028zm435.67-328.583c-2.946 0-5.335 2.388-5.335 5.335 0 2.945 2.39 5.334 5.335 5.334 2.947 0 5.335-2.39 5.335-5.335 0-2.948-2.388-5.336-5.335-5.336z" opacity=".15"/><path d="M1066.604 137.23c-.038-1.92 1.088-3.67 2.85-4.43 1.76-.76 3.806-.38 5.176.964 1.37 1.342 1.79 3.38 1.066 5.156-.725 1.776-2.452 2.937-4.37 2.937-1.24.014-2.436-.466-3.322-1.334-.886-.87-1.39-2.054-1.4-3.294zm43.64 320.673c-3.436.074-6.17 2.906-6.12 6.343.048 3.437 2.86 6.19 6.297 6.167 3.438-.024 6.212-2.817 6.213-6.254-.014-1.683-.697-3.29-1.9-4.466-1.2-1.176-2.82-1.825-4.502-1.804l.014.013zm40.8 429.736c-3.436.073-6.17 2.905-6.12 6.342.047 3.436 2.86 6.19 6.297 6.166 3.438-.024 6.212-2.816 6.213-6.253-.018-1.677-.7-3.278-1.9-4.45-1.197-1.174-2.812-1.823-4.49-1.806zm-70.836-288.092c-3.436.074-6.17 2.906-6.12 6.343.048 3.437 2.86 6.19 6.297 6.167 3.437-.024 6.21-2.816 6.212-6.253-.044-3.487-2.902-6.28-6.39-6.242v-.014zm-4.56-241.41c-.045 1.952 1.097 3.735 2.888 4.512 1.79.777 3.873.393 5.268-.972 1.395-1.364 1.826-3.437 1.09-5.245-.737-1.807-2.494-2.99-4.446-2.99-1.273-.014-2.498.484-3.4 1.382-.904.898-1.408 2.12-1.4 3.394v-.08zm-17.06 331.96c-2.578.057-4.626 2.185-4.587 4.763.04 2.58 2.15 4.644 4.73 4.625 2.578-.02 4.66-2.114 4.66-4.693-.014-1.26-.528-2.462-1.43-3.342-.9-.88-2.113-1.367-3.372-1.353zm11.924 152.834c-2.578.058-4.627 2.186-4.588 4.764.04 2.58 2.15 4.643 4.73 4.624 2.578-.02 4.66-2.115 4.66-4.693-.015-1.26-.528-2.462-1.43-3.342-.9-.88-2.113-1.367-3.372-1.353zm-1.147-566.086c-.043 1.95 1.098 3.735 2.89 4.512 1.79.777 3.872.392 5.267-.972 1.395-1.364 1.826-3.438 1.09-5.245-.737-1.806-2.494-2.988-4.446-2.99-1.26-.013-2.472.474-3.373 1.354-.9.88-1.414 2.083-1.428 3.342zm28.41-24.58c-.05 1.924 1.072 3.687 2.837 4.458 1.765.77 3.82.396 5.2-.948 1.38-1.344 1.807-3.39 1.08-5.174-.724-1.784-2.457-2.95-4.383-2.952-2.582-.03-4.7 2.035-4.736 4.615zm39.25-104.394c-2.54.06-4.558 2.156-4.52 4.698.04 2.54 2.12 4.576 4.663 4.557 2.542-.02 4.592-2.085 4.593-4.627-.013-1.24-.52-2.427-1.408-3.294-.888-.868-2.084-1.348-3.326-1.334zm-36.01-113.582c.043-1.926-1.084-3.686-2.85-4.45-1.768-.767-3.823-.387-5.198.962-1.376 1.348-1.797 3.395-1.067 5.177.73 1.78 2.468 2.943 4.393 2.938 2.555-.015 4.626-2.074 4.655-4.628h.067zm-11.79 444.38c-2.544.05-4.57 2.146-4.535 4.69.034 2.543 2.115 4.582 4.658 4.565 2.544-.017 4.597-2.083 4.598-4.627-.014-1.25-.528-2.444-1.428-3.314-.9-.87-2.11-1.343-3.36-1.314h.066zm59.645 337.44c2.543-.05 4.568-2.146 4.534-4.69-.034-2.543-2.114-4.582-4.658-4.565-2.544.017-4.597 2.083-4.598 4.627.037 2.55 2.106 4.6 4.655 4.615l.067.013zm-13.484-152.195c-2.544.052-4.57 2.146-4.535 4.69.035 2.543 2.116 4.582 4.66 4.565 2.543-.016 4.597-2.083 4.597-4.627-.03-2.58-2.14-4.65-4.72-4.628zm-8.203-47.375c-2.543.052-4.568 2.146-4.534 4.69.033 2.543 2.113 4.582 4.657 4.565 2.544-.016 4.597-2.083 4.598-4.627-.01-1.24-.515-2.425-1.4-3.294-.886-.868-2.08-1.348-3.322-1.334zm111.075-68.46c3.437-.075 6.17-2.907 6.122-6.344-.05-3.437-2.862-6.19-6.3-6.166-3.436.024-6.21 2.816-6.21 6.253.05 3.48 2.907 6.266 6.388 6.23v.026zm-25.78-477.045c-.055 2.594 1.465 4.963 3.846 5.995 2.38 1.032 5.15.52 7.005-1.293 1.855-1.813 2.43-4.57 1.453-6.973-.976-2.404-3.31-3.98-5.904-3.985-1.68-.022-3.3.625-4.5 1.8-1.2 1.172-1.886 2.775-1.903 4.455zm25.887 816.55c-3.436.074-6.17 2.906-6.12 6.343.047 3.437 2.86 6.19 6.297 6.167 3.437-.024 6.21-2.817 6.212-6.254-.032-1.676-.728-3.27-1.937-4.434-1.208-1.163-2.83-1.8-4.505-1.767l.053-.054zm-70.836-288.09c-3.437.073-6.17 2.905-6.122 6.342.05 3.437 2.86 6.19 6.298 6.167 3.437-.024 6.21-2.817 6.212-6.254-.073-3.48-2.947-6.248-6.43-6.188l.04-.067zm73.09-265.31c-2.58.058-4.63 2.188-4.59 4.768.043 2.58 2.16 4.644 4.74 4.62 2.58-.024 4.657-2.127 4.65-4.707-.072-2.612-2.242-4.675-4.854-4.615l.053-.066zm-30.01-29.997c2.578-.058 4.626-2.186 4.587-4.764-.04-2.58-2.15-4.643-4.73-4.624-2.578.02-4.658 2.115-4.66 4.693.015 1.26.53 2.462 1.43 3.342.9.88 2.113 1.367 3.373 1.353zm-60.02 390.604c.044-1.95-1.098-3.735-2.888-4.512-1.79-.777-3.873-.393-5.27.972-1.394 1.364-1.825 3.438-1.088 5.245.736 1.807 2.493 2.99 4.445 2.99 1.27.032 2.5-.447 3.415-1.33.915-.882 1.438-2.094 1.452-3.365h-.066zm64.568 64.313c-2.58.06-4.63 2.19-4.588 4.77.04 2.58 2.158 4.643 4.738 4.62 2.58-.025 4.658-2.128 4.65-4.708-.035-2.59-2.142-4.675-4.734-4.682h-.066zm-21.834-574.7c-2.582.05-4.637 2.177-4.6 4.76.036 2.58 2.15 4.65 4.733 4.627 2.582-.02 4.662-2.124 4.655-4.707-.036-2.612-2.176-4.704-4.788-4.68zm-87.548 200.836c.044-1.925-1.083-3.685-2.85-4.45-1.767-.766-3.822-.386-5.198.963-1.375 1.348-1.797 3.395-1.066 5.177.73 1.782 2.467 2.944 4.393 2.94 2.58.02 4.692-2.05 4.72-4.63zm112.89-163.625c-2.544.052-4.57 2.146-4.535 4.69.035 2.543 2.116 4.582 4.66 4.566 2.543-.016 4.596-2.083 4.597-4.626-.037-2.57-2.138-4.63-4.708-4.615l-.015-.015zM1195.63 69.5c-2.542.06-4.56 2.16-4.52 4.703.042 2.543 2.128 4.577 4.672 4.553 2.543-.024 4.59-2.097 4.584-4.64-.036-2.58-2.154-4.645-4.735-4.615zm28.664 78.385c-2.542.06-4.56 2.156-4.52 4.698.038 2.542 2.12 4.576 4.66 4.557 2.543-.02 4.594-2.084 4.595-4.626-.012-1.244-.517-2.433-1.405-3.304-.89-.87-2.087-1.352-3.33-1.338v.013zm-7.816 429.976c.038-1.916-1.088-3.666-2.85-4.427-1.76-.76-3.806-.38-5.176.963s-1.79 3.38-1.066 5.157c.725 1.775 2.452 2.936 4.37 2.937 1.24.014 2.436-.466 3.322-1.335.886-.868 1.39-2.053 1.4-3.294zm-49.522-525.15c.043-1.927-1.084-3.686-2.85-4.452-1.768-.766-3.823-.385-5.198.963-1.376 1.35-1.797 3.396-1.067 5.178s2.468 2.944 4.394 2.94c2.58.02 4.692-2.05 4.722-4.63zm47.108-40.36c2.543-.052 4.568-2.146 4.534-4.69-.034-2.543-2.114-4.583-4.658-4.566-2.544.017-4.597 2.083-4.598 4.627.03 2.582 2.142 4.652 4.722 4.63zm-37.6 466.32c-2.542.05-4.567 2.146-4.533 4.69.035 2.543 2.116 4.582 4.66 4.565 2.543-.017 4.596-2.083 4.597-4.627-.03-2.58-2.14-4.65-4.722-4.628zm84.868-32.664c-2.545.052-4.57 2.15-4.534 4.694.036 2.545 2.122 4.583 4.667 4.562 2.545-.022 4.596-2.095 4.59-4.64-.02-1.242-.53-2.426-1.42-3.292-.89-.865-2.088-1.34-3.33-1.324h.027zm-77.21-65.54c-2.544.05-4.57 2.145-4.535 4.69.034 2.542 2.114 4.582 4.658 4.565 2.544-.016 4.597-2.082 4.598-4.626-.03-2.58-2.14-4.65-4.722-4.628zm52.016 435.577c2.54-.058 4.56-2.156 4.52-4.697-.038-2.542-2.12-4.577-4.662-4.558-2.542.02-4.593 2.085-4.593 4.627-.004 1.243.488 2.436 1.367 3.314.88.878 2.072 1.37 3.314 1.367l.054-.054zm4.494-141.444c-2.543.05-4.568 2.144-4.534 4.688.034 2.543 2.114 4.583 4.658 4.566 2.544-.017 4.597-2.083 4.598-4.627-.025-1.243-.544-2.425-1.443-3.284-.897-.858-2.102-1.323-3.344-1.29l.066-.054zm-26.555-32.398c2.544-.052 4.57-2.146 4.535-4.69-.034-2.543-2.115-4.582-4.66-4.565-2.542.016-4.596 2.083-4.596 4.627.03 2.58 2.14 4.65 4.72 4.628zm468.148 124.8c-2.497.058-4.48 2.12-4.44 4.617.038 2.496 2.084 4.495 4.582 4.476 2.497-.02 4.512-2.05 4.513-4.547-.014-1.223-.514-2.39-1.39-3.244-.876-.853-2.055-1.323-3.278-1.305h.013zm38.266-323.196c-3.375.08-6.054 2.868-6 6.244.053 3.376 2.82 6.077 6.195 6.05 3.376-.025 6.1-2.77 6.1-6.146-.043-3.435-2.86-6.185-6.294-6.148zm40.16-422.734c-3.375.08-6.055 2.868-6 6.244.052 3.376 2.818 6.078 6.194 6.05 3.377-.025 6.1-2.77 6.1-6.145-.043-3.434-2.86-6.185-6.294-6.148zm-69.702 295.667c3.377-.074 6.063-2.86 6.015-6.237-.05-3.378-2.814-6.084-6.192-6.06-3.377.024-6.103 2.77-6.104 6.147.018 1.65.69 3.223 1.867 4.376 1.18 1.153 2.767 1.79 4.415 1.773zm.227 232.806c-2.534.058-4.547 2.15-4.508 4.684.04 2.534 2.115 4.563 4.65 4.544 2.534-.02 4.58-2.08 4.58-4.613-.03-2.572-2.136-4.636-4.71-4.614h-.012zm-21.487-331.092c-2.536.052-4.555 2.14-4.52 4.676.033 2.536 2.107 4.57 4.644 4.553 2.536-.017 4.584-2.077 4.584-4.614-.03-2.574-2.135-4.638-4.708-4.616zm11.737-141.11c2.534-.06 4.546-2.15 4.508-4.685-.04-2.535-2.115-4.564-4.65-4.545-2.534.02-4.58 2.08-4.58 4.613.015 1.238.52 2.42 1.405 3.286.886.865 2.08 1.343 3.317 1.33zm3.588 552.174c-2.534.058-4.547 2.15-4.508 4.684.04 2.534 2.115 4.563 4.65 4.544 2.534-.02 4.58-2.08 4.58-4.613-.06-2.558-2.164-4.592-4.722-4.562v-.052zm27.862 24.367c-2.497.06-4.48 2.12-4.44 4.618.038 2.497 2.084 4.496 4.58 4.477 2.5-.02 4.514-2.05 4.515-4.546-.014-1.22-.513-2.386-1.386-3.24-.873-.852-2.05-1.323-3.27-1.31zm33.97 98.15c-2.496.06-4.48 2.122-4.44 4.62.04 2.497 2.084 4.495 4.582 4.476 2.498-.018 4.513-2.048 4.513-4.545.004-1.232-.486-2.414-1.36-3.282-.876-.867-2.062-1.348-3.294-1.333v.066zM1706.7 868.314c-2.497.06-4.48 2.12-4.44 4.618.038 2.498 2.083 4.497 4.58 4.478 2.5-.02 4.514-2.05 4.514-4.547.008-1.232-.482-2.416-1.357-3.284-.876-.868-2.064-1.347-3.297-1.33v.067zm-2.294-437.165c.043-1.893-1.065-3.623-2.802-4.377-1.737-.752-3.757-.378-5.11.947-1.352 1.325-1.767 3.338-1.05 5.09.72 1.752 2.427 2.894 4.32 2.89 2.536.022 4.612-2.013 4.642-4.55zm54.03-327.41c-2.5.052-4.488 2.11-4.454 4.61.034 2.5 2.078 4.502 4.578 4.485 2.5-.016 4.517-2.047 4.517-4.547-.03-2.536-2.105-4.57-4.64-4.548zm-8.55 145.153c.044-1.89-1.062-3.62-2.798-4.375-1.735-.754-3.755-.383-5.108.94-1.353 1.322-1.772 3.332-1.058 5.085.714 1.752 2.418 2.898 4.31 2.9 1.22.013 2.396-.458 3.27-1.31.872-.854 1.37-2.02 1.385-3.24zm-12.723 42.08c-2.5.052-4.49 2.11-4.455 4.61.034 2.5 2.08 4.503 4.578 4.486 2.5-.017 4.518-2.048 4.518-4.547-.03-2.537-2.105-4.572-4.64-4.55zm115.516 82.6c.06-2.56-1.437-4.9-3.784-5.92-2.347-1.02-5.078-.52-6.91 1.27-1.83 1.788-2.396 4.507-1.43 6.877.964 2.37 3.268 3.92 5.828 3.922 3.435.036 6.25-2.715 6.295-6.15zm-25.342 456.878c-3.376.08-6.055 2.868-6 6.244.052 3.376 2.818 6.077 6.194 6.05 3.377-.025 6.1-2.77 6.1-6.145-.043-3.435-2.86-6.186-6.294-6.15zm19.14-797.08c3.375-.08 6.054-2.867 6-6.243-.053-3.376-2.82-6.077-6.195-6.05-3.377.025-6.1 2.77-6.1 6.146.016 1.65.69 3.227 1.87 4.38 1.182 1.154 2.773 1.79 4.424 1.77zm-63.38 277.222c.053-2.552-1.442-4.883-3.785-5.898-2.343-1.014-5.066-.51-6.89 1.275-1.825 1.786-2.387 4.498-1.423 6.862.964 2.363 3.262 3.908 5.815 3.91 1.65.017 3.237-.62 4.415-1.774 1.178-1.153 1.85-2.727 1.867-4.376zm65.58 257.935c-2.536.05-4.555 2.14-4.52 4.676.033 2.537 2.107 4.57 4.644 4.554 2.536-.017 4.583-2.078 4.584-4.614-.03-2.573-2.135-4.637-4.708-4.615zm-24.755 43.414c.044-1.92-1.08-3.674-2.84-4.44-1.76-.763-3.808-.386-5.18.956-1.373 1.34-1.797 3.38-1.072 5.157.725 1.778 2.453 2.94 4.372 2.94 1.247.022 2.45-.457 3.343-1.33.892-.87 1.398-2.063 1.405-3.31l-.027.026zm-68.408-393.46c-2.534.067-4.54 2.164-4.494 4.698.047 2.535 2.13 4.557 4.663 4.53 2.534-.025 4.573-2.09 4.567-4.625-.01-1.24-.514-2.426-1.4-3.294-.886-.87-2.08-1.35-3.322-1.336l-.013.027zm68.235-58.684c2.534-.06 4.546-2.15 4.508-4.684-.04-2.535-2.115-4.563-4.65-4.544-2.534.02-4.58 2.078-4.58 4.613.01 1.243.517 2.43 1.406 3.295.89.867 2.088 1.342 3.33 1.32h-.014zm-16.805 560.777c.043-1.92-1.08-3.673-2.84-4.437-1.76-.765-3.808-.388-5.18.954-1.373 1.34-1.797 3.38-1.073 5.158.724 1.777 2.452 2.94 4.37 2.94 1.24.014 2.432-.464 3.318-1.33.885-.865 1.39-2.047 1.405-3.285zm-95.484-188.46c2.498-.058 4.48-2.12 4.442-4.617-.04-2.497-2.085-4.496-4.582-4.477-2.498.018-4.513 2.048-4.514 4.545.014 1.22.513 2.386 1.386 3.24.873.852 2.05 1.323 3.27 1.31zm111.05 151.862c-.044 1.892 1.062 3.622 2.798 4.376 1.735.755 3.755.383 5.108-.94 1.354-1.32 1.772-3.332 1.058-5.084-.714-1.753-2.417-2.9-4.31-2.9-1.22-.013-2.396.458-3.27 1.31-.872.854-1.37 2.02-1.384 3.24zm-18.02 145.1c-2.497.058-4.48 2.12-4.44 4.617.04 2.497 2.084 4.496 4.582 4.477 2.498-.02 4.513-2.05 4.513-4.548-.014-1.22-.512-2.385-1.385-3.238-.873-.853-2.05-1.324-3.27-1.31zm28.183-77.105c-2.497.058-4.48 2.12-4.44 4.617.038 2.498 2.083 4.497 4.58 4.478 2.5-.02 4.514-2.05 4.515-4.547-.014-1.22-.513-2.385-1.386-3.238-.873-.853-2.05-1.324-3.27-1.31zm-12.337-409.316c2.497-.06 4.48-2.12 4.44-4.618-.038-2.497-2.084-4.496-4.582-4.477-2.498.018-4.513 2.048-4.513 4.546.01 1.226.512 2.397 1.392 3.25.88.856 2.064 1.323 3.29 1.298h-.026zM1771.6 850.147c-2.497.06-4.48 2.12-4.44 4.618.038 2.498 2.084 4.496 4.582 4.477 2.497-.02 4.512-2.05 4.513-4.546-.03-2.53-2.097-4.563-4.628-4.55h-.027zm51.003 44.228c-2.5.05-4.488 2.11-4.454 4.61.033 2.498 2.077 4.502 4.577 4.485 2.5-.017 4.517-2.048 4.517-4.547-.022-2.53-2.083-4.57-4.614-4.562l-.027.015zm-32.344-463.227c.043-1.89-1.063-3.62-2.8-4.375-1.734-.755-3.754-.383-5.107.94-1.354 1.322-1.772 3.332-1.058 5.084.714 1.753 2.417 2.9 4.31 2.9 1.22.014 2.396-.458 3.27-1.31.872-.853 1.37-2.018 1.384-3.24zm78.838 27.596c-2.5.05-4.49 2.11-4.455 4.61.034 2.498 2.08 4.502 4.578 4.485 2.5-.018 4.52-2.05 4.52-4.548-.004-1.225-.496-2.398-1.367-3.26-.872-.86-2.05-1.34-3.275-1.328v.04zm-75.93 64.433c-2.5.052-4.49 2.11-4.455 4.61.034 2.5 2.078 4.502 4.578 4.486 2.5-.017 4.518-2.048 4.518-4.547-.03-2.537-2.105-4.57-4.64-4.55zm51.108-410.343c2.498-.058 4.48-2.12 4.44-4.617-.038-2.498-2.083-4.496-4.58-4.477-2.5.02-4.514 2.05-4.514 4.546.014 1.22.512 2.386 1.385 3.238.873.853 2.05 1.325 3.27 1.31zm4.402 120.92c-2.5.05-4.49 2.108-4.454 4.608.034 2.5 2.078 4.503 4.578 4.486 2.5-.017 4.517-2.048 4.517-4.547-.03-2.535-2.106-4.57-4.642-4.547zM1822.63 283.9c2.497-.06 4.48-2.12 4.44-4.618-.038-2.497-2.084-4.496-4.582-4.477-2.498.02-4.513 2.05-4.513 4.547.014 1.22.512 2.385 1.385 3.238.873.853 2.05 1.324 3.27 1.31zm70.862 483.1c-2.5.05-4.488 2.11-4.454 4.608.034 2.5 2.078 4.503 4.578 4.486 2.5-.016 4.517-2.047 4.517-4.547-.03-2.537-2.105-4.57-4.64-4.55zm38.265-323.196c-3.377.073-6.063 2.857-6.014 6.235.048 3.38 2.813 6.085 6.19 6.06 3.38-.023 6.106-2.767 6.106-6.146-.045-3.43-2.853-6.178-6.283-6.148zm40.146-422.734c-3.375.08-6.054 2.868-6 6.244.053 3.376 2.82 6.078 6.195 6.05 3.376-.025 6.1-2.77 6.1-6.145-.017-1.65-.69-3.226-1.87-4.38-1.182-1.153-2.774-1.79-4.425-1.768zm-69.675 295.667c3.376-.082 6.055-2.87 6-6.245-.052-3.376-2.818-6.078-6.194-6.05-3.377.025-6.1 2.77-6.1 6.145.016 1.65.69 3.227 1.87 4.38 1.182 1.154 2.773 1.79 4.424 1.77zm.227 232.806c-2.536.05-4.555 2.14-4.52 4.676.033 2.536 2.107 4.57 4.644 4.552 2.535-.016 4.582-2.077 4.583-4.613-.03-2.572-2.135-4.636-4.708-4.614zm-21.5-331.092c-2.534.06-4.547 2.15-4.508 4.685.04 2.533 2.115 4.562 4.65 4.543 2.534-.02 4.58-2.08 4.58-4.614-.015-1.24-.52-2.42-1.406-3.286-.884-.866-2.077-1.344-3.315-1.33zm11.737-141.11c2.534-.06 4.546-2.15 4.507-4.685-.04-2.535-2.115-4.564-4.65-4.545-2.534.02-4.58 2.08-4.58 4.613.014 1.238.52 2.42 1.405 3.286.886.865 2.08 1.343 3.317 1.33zm3.588 552.174c-2.536.05-4.555 2.14-4.52 4.675.033 2.537 2.107 4.57 4.643 4.553 2.537-.017 4.584-2.077 4.585-4.613-.06-2.553-2.156-4.584-4.708-4.562v-.052zm27.875 24.367c-2.497.06-4.48 2.12-4.44 4.618.038 2.497 2.084 4.496 4.58 4.477 2.5-.02 4.514-2.05 4.515-4.546-.014-1.22-.513-2.386-1.386-3.24-.872-.852-2.05-1.323-3.27-1.31zm33.957 98.15c-2.497.06-4.48 2.122-4.44 4.62.038 2.497 2.084 4.495 4.582 4.476 2.498-.018 4.513-2.048 4.513-4.545.004-1.232-.487-2.414-1.362-3.282-.874-.867-2.06-1.348-3.293-1.333v.066zm-40.08 116.212c-2.496.058-4.48 2.12-4.44 4.617.04 2.498 2.085 4.496 4.583 4.477 2.497-.018 4.512-2.048 4.513-4.545-.014-1.22-.513-2.386-1.385-3.24-.873-.852-2.05-1.323-3.27-1.308zm-2.36-437.1c.044-1.89-1.062-3.62-2.798-4.374-1.735-.755-3.755-.383-5.108.94-1.354 1.322-1.772 3.332-1.058 5.084.714 1.753 2.417 2.9 4.31 2.9 1.22.014 2.396-.458 3.27-1.31.872-.853 1.37-2.018 1.384-3.24zm54.03-327.41c-2.496.06-4.48 2.12-4.44 4.62.04 2.496 2.084 4.495 4.582 4.476 2.498-.02 4.513-2.05 4.514-4.547-.014-1.22-.513-2.385-1.386-3.238-.873-.853-2.05-1.324-3.27-1.31zm-8.55 145.154c.045-1.892-1.063-3.623-2.8-4.376-1.737-.754-3.758-.38-5.11.945-1.352 1.325-1.767 3.337-1.05 5.09.72 1.75 2.426 2.894 4.32 2.89 2.536.02 4.612-2.013 4.64-4.55zm-12.723 42.08c-2.5.052-4.49 2.11-4.455 4.61.034 2.5 2.08 4.503 4.578 4.486 2.5-.017 4.517-2.048 4.518-4.547-.028-2.537-2.104-4.572-4.64-4.55zm115.556 82.6c.06-2.56-1.436-4.9-3.783-5.92-2.347-1.02-5.078-.52-6.91 1.27-1.83 1.788-2.396 4.507-1.43 6.877.964 2.37 3.268 3.92 5.828 3.922 3.435.036 6.252-2.715 6.296-6.15zm-25.408 456.878c-3.378.073-6.063 2.858-6.015 6.235.05 3.378 2.814 6.084 6.192 6.06 3.378-.023 6.104-2.768 6.105-6.146-.044-3.43-2.852-6.18-6.282-6.15zm19.18-797.08c3.367-.108 6.02-2.908 5.946-6.276-.072-3.37-2.842-6.052-6.21-6.016-3.37.035-6.084 2.775-6.085 6.145.016 1.66.697 3.245 1.89 4.4 1.192 1.155 2.797 1.785 4.457 1.75zm2.213 535.157c-2.533.06-4.545 2.15-4.506 4.684.04 2.534 2.114 4.562 4.65 4.543 2.533-.02 4.578-2.078 4.58-4.613-.015-1.238-.52-2.42-1.406-3.285-.886-.866-2.08-1.344-3.317-1.33zm-24.753 43.414c.043-1.92-1.08-3.674-2.84-4.44-1.76-.763-3.808-.386-5.18.956-1.373 1.34-1.797 3.38-1.073 5.157.724 1.778 2.452 2.94 4.37 2.94 1.244.015 2.44-.467 3.327-1.338.888-.87 1.39-2.06 1.397-3.303v.027zm-68.422-393.46c-2.536.06-4.55 2.154-4.507 4.69.04 2.536 2.12 4.563 4.658 4.54 2.536-.025 4.577-2.09 4.57-4.627-.01-1.238-.512-2.422-1.395-3.29-.882-.868-2.073-1.35-3.31-1.34l-.015.028zm68.235-58.684c2.534-.06 4.546-2.15 4.508-4.684-.04-2.535-2.115-4.563-4.65-4.544-2.534.02-4.58 2.078-4.58 4.613.01 1.243.517 2.43 1.406 3.295.89.867 2.088 1.342 3.33 1.32h-.014zm-16.805 560.777c.043-1.92-1.08-3.675-2.843-4.44-1.762-.762-3.81-.383-5.183.962-1.372 1.344-1.793 3.385-1.064 5.162.728 1.777 2.46 2.936 4.38 2.93 1.237.015 2.43-.463 3.312-1.33.884-.865 1.386-2.047 1.397-3.284zm-95.497-188.46c2.497-.058 4.48-2.12 4.44-4.617-.038-2.497-2.084-4.496-4.582-4.477-2.497.018-4.512 2.048-4.513 4.545.014 1.22.513 2.386 1.385 3.24.873.852 2.05 1.323 3.27 1.31zm111.062 151.862c-.044 1.892 1.063 3.622 2.798 4.376 1.735.755 3.755.383 5.108-.94 1.354-1.32 1.772-3.332 1.058-5.084-.714-1.753-2.417-2.9-4.31-2.9-1.22-.013-2.396.458-3.27 1.31-.872.854-1.37 2.02-1.384 3.24zm-18.02 145.1c-2.496.058-4.48 2.12-4.44 4.617.04 2.497 2.084 4.496 4.582 4.477 2.498-.02 4.513-2.05 4.513-4.548-.014-1.22-.512-2.385-1.385-3.238-.873-.853-2.05-1.324-3.27-1.31zm28.196-77.105c-2.497.058-4.48 2.12-4.44 4.617.038 2.498 2.084 4.497 4.582 4.478 2.497-.02 4.512-2.05 4.513-4.547-.013-1.22-.51-2.385-1.384-3.238-.873-.853-2.05-1.324-3.27-1.31zm-12.337-409.316c2.496-.06 4.48-2.12 4.44-4.618-.04-2.497-2.085-4.496-4.582-4.477-2.498.018-4.513 2.048-4.514 4.546.014 1.222.514 2.39 1.39 3.243.876.852 2.056 1.322 3.278 1.304h-.013zm-48.736 507.493c-2.498.06-4.48 2.12-4.44 4.618.038 2.498 2.083 4.496 4.58 4.477 2.5-.02 4.514-2.05 4.514-4.546-.03-2.537-2.105-4.57-4.64-4.55h-.014zm51.002 44.228c-2.497.058-4.48 2.12-4.44 4.617.038 2.498 2.084 4.497 4.582 4.478 2.498-.02 4.513-2.05 4.513-4.547-.01-1.22-.504-2.387-1.375-3.242-.87-.855-2.045-1.33-3.265-1.32l-.014.015zm-32.37-463.227c.044-1.89-1.063-3.62-2.798-4.375-1.736-.755-3.755-.383-5.108.94-1.354 1.322-1.772 3.332-1.058 5.084.713 1.753 2.417 2.9 4.31 2.9 1.22.014 2.396-.458 3.27-1.31.872-.853 1.37-2.018 1.384-3.24zm78.852 27.596c-2.5.05-4.49 2.11-4.455 4.61.034 2.498 2.08 4.502 4.58 4.485 2.498-.018 4.516-2.05 4.516-4.548-.004-1.225-.496-2.398-1.367-3.26-.872-.86-2.05-1.34-3.275-1.328v.04zm-75.944 64.433c-2.5.052-4.49 2.11-4.455 4.61.033 2.5 2.078 4.502 4.578 4.486 2.5-.017 4.517-2.048 4.517-4.547-.03-2.537-2.105-4.57-4.64-4.55zm51.123-410.343c2.5-.05 4.488-2.11 4.454-4.61-.033-2.498-2.078-4.5-4.577-4.485-2.5.016-4.517 2.047-4.518 4.546.03 2.536 2.105 4.57 4.642 4.548zm4.414 120.92c-2.496.057-4.478 2.12-4.44 4.616.04 2.498 2.085 4.497 4.583 4.477 2.497-.02 4.512-2.048 4.513-4.546-.014-1.22-.512-2.384-1.385-3.237-.872-.853-2.048-1.325-3.27-1.31zm-26.06 50.148c2.497-.06 4.48-2.12 4.44-4.618-.038-2.497-2.084-4.496-4.582-4.477-2.497.02-4.512 2.05-4.513 4.547.014 1.22.512 2.385 1.385 3.238.873.853 2.05 1.324 3.27 1.31zm-580.504 516.616c.038-1.92-1.09-3.676-2.854-4.44-1.764-.762-3.815-.382-5.19.96-1.374 1.345-1.8 3.386-1.077 5.168.723 1.78 2.45 2.948 4.373 2.954 1.245.014 2.445-.467 3.336-1.337.89-.87 1.398-2.06 1.412-3.305zm-37.345-327.89c.06-2.607-1.464-4.99-3.856-6.03s-5.175-.528-7.04 1.295c-1.865 1.823-2.442 4.593-1.458 7.008.984 2.417 3.332 3.996 5.94 3.997 3.5.037 6.37-2.768 6.415-6.27zM1375.13 41.612c.06-2.61-1.466-4.993-3.86-6.032-2.393-1.04-5.178-.524-7.042 1.3-1.864 1.827-2.437 4.6-1.45 7.014.99 2.415 3.34 3.99 5.95 3.987 3.496.03 6.358-2.772 6.402-6.268zm64.634 295.187c3.444-.075 6.183-2.913 6.135-6.357-.05-3.444-2.867-6.204-6.312-6.18-3.444.024-6.224 2.822-6.225 6.267.044 3.496 2.906 6.298 6.402 6.27zm4.575 242.075c.05-1.958-1.093-3.75-2.888-4.533-1.796-.783-3.886-.4-5.288.966-1.402 1.367-1.836 3.447-1.1 5.26.74 1.815 2.502 3 4.46 3.002 2.624.03 4.778-2.07 4.815-4.695zm12.297-337.573c-.043 1.956 1.102 3.744 2.897 4.523 1.796.78 3.885.394 5.284-.974 1.4-1.367 1.83-3.446 1.092-5.26-.738-1.81-2.5-2.996-4.457-2.996-1.264-.015-2.48.473-3.384 1.356-.903.883-1.418 2.09-1.432 3.352zm-7.162-148.594c2.587-.05 4.648-2.18 4.614-4.77-.034-2.587-2.15-4.662-4.738-4.645-2.588.017-4.677 2.12-4.678 4.707.03 2.624 2.177 4.73 4.802 4.708zm-3.588 563.07c-2.586.06-4.64 2.193-4.6 4.78.038 2.585 2.155 4.655 4.74 4.636 2.587-.02 4.674-2.12 4.675-4.706-.015-1.263-.53-2.47-1.434-3.352-.903-.883-2.12-1.37-3.382-1.357zm-23.674 29.344c.043-1.93-1.086-3.693-2.856-4.462-1.77-.77-3.83-.39-5.21.96s-1.807 3.4-1.078 5.187c.728 1.787 2.465 2.956 4.396 2.956 2.567-.007 4.652-2.074 4.68-4.64h.068zm-39.44 95.47c-2.55.06-4.575 2.165-4.534 4.716.042 2.55 2.134 4.59 4.685 4.566 2.552-.024 4.605-2.103 4.6-4.654-.015-1.244-.524-2.43-1.415-3.3-.89-.868-2.09-1.346-3.334-1.328zm40.92 118.558c-2.55.058-4.573 2.16-4.534 4.71.04 2.55 2.126 4.59 4.676 4.57 2.55-.018 4.606-2.09 4.606-4.64-.003-1.25-.507-2.447-1.4-3.324-.89-.877-2.097-1.36-3.348-1.343v.027zm7.082-450.343c-2.548.06-4.573 2.162-4.534 4.71.04 2.55 2.127 4.59 4.676 4.572 2.55-.02 4.606-2.092 4.607-4.64-.003-1.25-.505-2.445-1.394-3.322-.89-.877-2.092-1.362-3.34-1.347l-.014.027zm-46.36-185.792c-2.55.06-4.574 2.162-4.535 4.71.04 2.55 2.126 4.59 4.676 4.572 2.55-.02 4.606-2.09 4.606-4.64-.008-1.248-.51-2.44-1.4-3.317-.888-.876-2.088-1.362-3.336-1.35l-.013.025zm8.228 47.55c-2.548.057-4.573 2.16-4.534 4.71.04 2.55 2.127 4.59 4.676 4.57 2.55-.02 4.606-2.09 4.607-4.64-.01-1.247-.512-2.44-1.4-3.317-.888-.875-2.09-1.362-3.336-1.35l-.014.026zm-111.408 77.903c-3.442.08-6.175 2.922-6.12 6.364.052 3.443 2.872 6.198 6.314 6.172 3.443-.027 6.22-2.824 6.22-6.267-.016-1.683-.703-3.29-1.906-4.465-1.204-1.176-2.826-1.825-4.508-1.804zm25.94 478.39c.06-2.606-1.464-4.99-3.856-6.03-2.39-1.04-5.175-.526-7.04 1.296-1.865 1.823-2.442 4.593-1.458 7.01.984 2.414 3.332 3.993 5.94 3.994 3.5.037 6.37-2.767 6.415-6.27zm-25.967-818.924c3.442-.08 6.175-2.922 6.12-6.364-.052-3.443-2.872-6.198-6.314-6.17-3.442.025-6.22 2.822-6.22 6.265.066 3.478 2.923 6.253 6.402 6.216l.013.054zm-2.254 545.612c-2.584.06-4.64 2.192-4.6 4.778.04 2.586 2.156 4.656 4.743 4.637 2.586-.018 4.672-2.12 4.673-4.705 0-1.277-.512-2.5-1.423-3.396-.91-.896-2.142-1.388-3.42-1.367l.028.053zm30.037 39.56c-2.585.058-4.64 2.19-4.6 4.777.038 2.586 2.156 4.657 4.742 4.637 2.585-.02 4.67-2.12 4.672-4.706 0-1.275-.51-2.496-1.418-3.39-.907-.896-2.136-1.39-3.41-1.372l.013.054zm64.874-396.512c-2.584.058-4.64 2.19-4.6 4.777.04 2.587 2.156 4.658 4.743 4.64 2.586-.02 4.672-2.122 4.673-4.708-.01-1.264-.525-2.472-1.428-3.356-.904-.883-2.123-1.37-3.387-1.352zm-69.568-59.806c2.588-.05 4.65-2.18 4.615-4.77-.034-2.587-2.15-4.662-4.738-4.645-2.59.016-4.68 2.12-4.68 4.707.015 1.27.536 2.48 1.447 3.366.912.884 2.14 1.367 3.41 1.342h-.055zm21.954 567.033c-2.585.06-4.64 2.192-4.6 4.778.038 2.586 2.155 4.657 4.742 4.637 2.586-.02 4.672-2.12 4.673-4.706-.028-2.61-2.152-4.71-4.76-4.71h-.054zm87.8-192.06c-.048 1.93 1.078 3.698 2.848 4.47 1.77.774 3.83.398 5.214-.95 1.383-1.348 1.812-3.4 1.084-5.188-.727-1.79-2.465-2.96-4.397-2.96-2.562.007-4.645 2.066-4.68 4.628h-.068zm-113.22 164.052c2.55-.052 4.58-2.152 4.546-4.703-.034-2.552-2.12-4.597-4.67-4.58-2.552.017-4.612 2.09-4.612 4.64 0 1.262.507 2.47 1.408 3.353.9.884 2.12 1.367 3.38 1.342l-.053-.053zm23.113 143.312c-2.55.058-4.574 2.162-4.536 4.71.04 2.55 2.127 4.59 4.676 4.57 2.55-.018 4.606-2.09 4.607-4.64-.058-2.55-2.143-4.588-4.695-4.587l-.053-.053zm-24.01-73.984c.044-1.93-1.085-3.693-2.855-4.462-1.77-.768-3.83-.39-5.21.96s-1.806 3.4-1.078 5.187c.728 1.787 2.466 2.956 4.396 2.957 1.245.028 2.45-.44 3.35-1.3.902-.86 1.423-2.043 1.45-3.288l-.052-.054zm3.082-426.6c-.043 1.928 1.086 3.692 2.856 4.46 1.77.77 3.83.39 5.21-.96 1.38-1.348 1.806-3.4 1.078-5.186-.728-1.788-2.466-2.956-4.396-2.957-2.587.008-4.68 2.107-4.68 4.695l-.068-.053zm54.484 522.084c-2.55.058-4.573 2.162-4.534 4.71.04 2.55 2.126 4.59 4.675 4.57 2.55-.018 4.606-2.09 4.607-4.64-.01-1.245-.517-2.436-1.41-3.307-.89-.87-2.092-1.35-3.338-1.333zm-52.017 45.094c-2.55.05-4.582 2.152-4.548 4.702.034 2.55 2.12 4.597 4.67 4.58 2.552-.017 4.612-2.09 4.612-4.64-.043-2.567-2.14-4.623-4.708-4.615l-.027-.027zm37.745-476.964c-2.55.06-4.573 2.162-4.534 4.71.04 2.55 2.127 4.59 4.676 4.57 2.55-.018 4.606-2.09 4.607-4.64-.044-2.57-2.15-4.628-4.722-4.613l-.025-.026zm-85.12 32.77c-2.553.052-4.585 2.155-4.548 4.707.036 2.554 2.128 4.598 4.68 4.576 2.553-.022 4.61-2.1 4.602-4.654-.044-2.564-2.144-4.616-4.71-4.6l-.025-.028zm77.357 65.674c-2.548.06-4.573 2.162-4.534 4.71.04 2.55 2.126 4.59 4.676 4.572 2.55-.02 4.606-2.09 4.606-4.64-.02-2.567-2.1-4.64-4.668-4.655l-.08.013zm-52.03-427.575c-2.548.06-4.573 2.162-4.534 4.71.04 2.55 2.127 4.59 4.676 4.572 2.55-.02 4.606-2.09 4.607-4.64-.013-1.245-.522-2.434-1.412-3.305-.89-.87-2.09-1.35-3.335-1.337zm-4.508 141.872c2.55-.052 4.582-2.152 4.548-4.703-.034-2.55-2.12-4.596-4.67-4.58-2.553.018-4.612 2.09-4.612 4.64.01 1.245.515 2.434 1.404 3.305.888.87 2.087 1.352 3.33 1.338zm26.582 32.543c-2.55.052-4.582 2.152-4.548 4.703.035 2.552 2.12 4.597 4.672 4.58 2.55-.017 4.61-2.09 4.61-4.64-.028-2.588-2.146-4.664-4.734-4.642zm143.7-162.118c-.044 1.892 1.062 3.622 2.797 4.376 1.736.754 3.755.383 5.11-.94 1.352-1.322 1.77-3.332 1.056-5.085-.714-1.75-2.418-2.897-4.31-2.898-1.22-.014-2.397.457-3.27 1.31-.873.853-1.37 2.018-1.385 3.238zm42.932 315.447c-3.377.073-6.063 2.858-6.014 6.235.048 3.378 2.813 6.084 6.19 6.06 3.38-.023 6.106-2.768 6.106-6.147-.017-1.648-.69-3.222-1.867-4.375-1.178-1.153-2.766-1.79-4.415-1.773zm40.147 422.733c-3.378.074-6.064 2.858-6.015 6.236.05 3.378 2.813 6.084 6.19 6.06 3.38-.024 6.106-2.77 6.106-6.147-.014-1.654-.686-3.233-1.867-4.39-1.182-1.156-2.776-1.794-4.43-1.773l.015.013zm-69.69-283.37c-3.375.08-6.054 2.87-6 6.245.053 3.376 2.82 6.077 6.195 6.05 3.377-.025 6.1-2.77 6.1-6.146-.016-1.65-.69-3.227-1.87-4.38-1.182-1.154-2.773-1.79-4.424-1.77zm.228-232.806c2.534-.06 4.546-2.15 4.507-4.684-.04-2.535-2.114-4.563-4.65-4.544-2.533.02-4.578 2.08-4.58 4.613.012 1.238.516 2.422 1.402 3.288.886.867 2.08 1.344 3.32 1.326zm-16.78 326.476c.044-1.92-1.08-3.674-2.842-4.438-1.76-.764-3.81-.384-5.18.96-1.373 1.344-1.793 3.385-1.065 5.162.728 1.777 2.46 2.936 4.38 2.93 1.238.015 2.43-.463 3.313-1.33.883-.865 1.385-2.047 1.396-3.284zm7.016 145.727c-2.536.05-4.556 2.14-4.522 4.675.034 2.536 2.11 4.57 4.645 4.553 2.537-.017 4.584-2.077 4.585-4.614-.03-2.572-2.136-4.636-4.71-4.613zm8.295-556.856c.044-1.918-1.08-3.672-2.84-4.437-1.76-.764-3.808-.387-5.18.954-1.373 1.342-1.797 3.38-1.072 5.158.724 1.778 2.452 2.94 4.37 2.94 1.24.018 2.438-.46 3.326-1.324.888-.865 1.395-2.05 1.41-3.29h-.015zm18.513-24.18c-.043 1.89 1.063 3.62 2.798 4.375 1.736.755 3.755.383 5.11-.94 1.352-1.322 1.77-3.332 1.056-5.085-.713-1.752-2.417-2.898-4.31-2.9-1.22-.013-2.396.458-3.27 1.31-.872.854-1.37 2.02-1.384 3.24zm38.68-102.7c-2.498.06-4.48 2.12-4.442 4.618.04 2.497 2.085 4.496 4.582 4.477 2.498-.02 4.513-2.05 4.514-4.546-.018-1.23-.525-2.4-1.41-3.25-.883-.852-2.07-1.315-3.3-1.286l.055-.014zM1483 30.675c.044-1.892-1.063-3.62-2.798-4.376-1.736-.755-3.755-.383-5.108.94-1.354 1.32-1.772 3.332-1.058 5.084.714 1.753 2.417 2.9 4.31 2.9 1.22.013 2.396-.458 3.27-1.31.872-.854 1.37-2.018 1.384-3.24zM1471.4 467.813c-2.5.06-4.48 2.12-4.442 4.618.04 2.498 2.084 4.497 4.582 4.478 2.498-.02 4.513-2.05 4.513-4.547-.014-1.22-.512-2.384-1.385-3.237-.873-.853-2.05-1.324-3.27-1.31zm58.684 331.92c2.497-.06 4.48-2.122 4.44-4.62-.038-2.497-2.084-4.495-4.582-4.476-2.497.02-4.512 2.05-4.513 4.546.036 2.53 2.11 4.557 4.64 4.535l.014.014zM1516.88 650.03c-2.497.06-4.48 2.12-4.44 4.618.038 2.498 2.083 4.497 4.58 4.478 2.5-.02 4.514-2.05 4.514-4.547-.01-1.224-.507-2.392-1.38-3.248-.874-.856-2.052-1.33-3.274-1.314v.013zm-8.07-46.68c-2.497.058-4.48 2.12-4.44 4.617.038 2.498 2.084 4.496 4.582 4.477 2.498-.02 4.513-2.05 4.513-4.546-.05-2.53-2.137-4.546-4.668-4.51l.013-.04zm109.275-67.355c3.377-.073 6.063-2.858 6.015-6.236-.05-3.38-2.814-6.085-6.192-6.06-3.378.023-6.104 2.768-6.105 6.146.003 1.656.667 3.24 1.844 4.405 1.177 1.166 2.77 1.812 4.425 1.798l.013-.053zM1592.597 66.86c-.06 2.56 1.437 4.9 3.786 5.92 2.348 1.02 5.08.517 6.91-1.274 1.83-1.792 2.394-4.513 1.424-6.883-.97-2.37-3.277-3.916-5.838-3.912-3.43-.028-6.24 2.72-6.283 6.15zm25.475 803.227c-3.376.08-6.055 2.868-6 6.244.052 3.377 2.818 6.08 6.194 6.052 3.376-.026 6.1-2.77 6.1-6.146-.036-3.417-2.824-6.164-6.24-6.15h-.054zM1548.45 586.73c-3.378.074-6.064 2.86-6.015 6.236.05 3.378 2.813 6.084 6.19 6.06 3.38-.023 6.106-2.768 6.107-6.147-.044-3.43-2.853-6.18-6.282-6.15zm71.89-260.948c-2.537.05-4.556 2.14-4.522 4.675.034 2.537 2.11 4.57 4.645 4.553 2.536-.017 4.584-2.077 4.584-4.613-.03-2.573-2.135-4.638-4.708-4.615zm-29.464-29.61c2.534-.058 4.547-2.15 4.508-4.684-.04-2.534-2.115-4.563-4.65-4.544-2.534.02-4.578 2.08-4.58 4.614.01 1.24.516 2.423 1.402 3.29.886.865 2.08 1.342 3.32 1.324zM1531.898 680.4c.043-1.918-1.08-3.672-2.84-4.437-1.76-.764-3.808-.387-5.18.954-1.373 1.342-1.797 3.38-1.073 5.158.724 1.778 2.452 2.94 4.37 2.94 1.24.014 2.432-.464 3.318-1.33.885-.865 1.39-2.046 1.405-3.285zm63.513 63.26c-2.535.052-4.554 2.14-4.52 4.676.034 2.536 2.11 4.57 4.645 4.553 2.536-.018 4.584-2.078 4.584-4.615-.03-2.573-2.136-4.637-4.71-4.615zm-21.486-565.365c-2.534.06-4.546 2.15-4.507 4.684.04 2.534 2.114 4.562 4.65 4.543 2.533-.02 4.578-2.078 4.58-4.613-.015-1.238-.52-2.42-1.406-3.285-.885-.866-2.078-1.344-3.316-1.33zm-86.174 197.61c.044-1.893-1.062-3.622-2.798-4.377-1.735-.754-3.755-.382-5.108.94-1.354 1.323-1.772 3.333-1.058 5.085.714 1.753 2.417 2.9 4.31 2.9 1.22.014 2.396-.458 3.27-1.31.872-.854 1.37-2.018 1.384-3.24zm111.062-160.958c-2.497.05-4.486 2.107-4.454 4.604.03 2.5 2.07 4.504 4.57 4.492 2.497-.012 4.518-2.036 4.526-4.534-.03-2.538-2.103-4.576-4.642-4.56zM1576.138 65.3c-2.497.058-4.48 2.12-4.44 4.617.038 2.497 2.084 4.496 4.582 4.477 2.498-.02 4.512-2.05 4.513-4.547-.014-1.22-.512-2.385-1.385-3.238-.873-.854-2.05-1.325-3.27-1.31zm28.196 77.104c-2.497.058-4.48 2.12-4.44 4.617.038 2.5 2.084 4.498 4.58 4.48 2.5-.02 4.514-2.05 4.515-4.548-.015-1.22-.514-2.385-1.387-3.238-.873-.853-2.05-1.324-3.27-1.31zm-7.736 422.96c.044-1.893-1.064-3.624-2.8-4.377-1.738-.753-3.76-.38-5.11.946-1.354 1.325-1.77 3.337-1.05 5.09.717 1.752 2.425 2.894 4.32 2.89 2.535.02 4.61-2.013 4.64-4.55zm-48.682-516.59c.043-1.89-1.06-3.62-2.795-4.374-1.733-.755-3.75-.386-5.106.933-1.354 1.32-1.776 3.328-1.066 5.08.71 1.754 2.41 2.903 4.3 2.91 1.223.017 2.402-.453 3.278-1.306.876-.853 1.376-2.02 1.39-3.243zm46.348-39.68c2.497-.058 4.48-2.12 4.44-4.617-.038-2.497-2.084-4.496-4.58-4.477-2.5.02-4.514 2.05-4.515 4.547.01 1.225.508 2.395 1.385 3.25.876.858 2.057 1.33 3.282 1.31l-.013-.012zm-37.012 458.72c-2.5.05-4.488 2.11-4.454 4.608.034 2.5 2.08 4.503 4.578 4.486 2.5-.016 4.517-2.047 4.518-4.547-.01-1.218-.506-2.383-1.377-3.236-.87-.853-2.045-1.325-3.265-1.31zm83.493-32.144c-2.497.058-4.48 2.12-4.44 4.617.038 2.498 2.084 4.497 4.582 4.478 2.498-.02 4.513-2.05 4.513-4.547-.014-1.22-.512-2.385-1.385-3.238-.873-.853-2.05-1.324-3.27-1.31zm-75.93-64.407c-2.497.058-4.48 2.12-4.44 4.617.038 2.498 2.083 4.497 4.58 4.478 2.5-.02 4.514-2.05 4.515-4.547-.01-1.222-.508-2.39-1.38-3.246-.874-.856-2.053-1.33-3.275-1.315v.013zm51.123 428.47c2.497-.06 4.48-2.122 4.44-4.62-.038-2.497-2.084-4.495-4.582-4.476-2.498.02-4.513 2.05-4.513 4.546.036 2.53 2.11 4.557 4.64 4.535l.015.014zm4.4-139.18c-2.498.053-4.487 2.11-4.453 4.61.034 2.5 2.078 4.503 4.578 4.486 2.5-.017 4.517-2.048 4.517-4.548-.03-2.536-2.105-4.57-4.64-4.548zm-26.06-31.916c2.497-.058 4.48-2.12 4.44-4.617-.04-2.498-2.084-4.496-4.582-4.477-2.498.02-4.513 2.05-4.513 4.546.007 1.224.502 2.396 1.376 3.255.872.858 2.052 1.333 3.277 1.32v-.028zm435.67-328.583c-2.946 0-5.335 2.388-5.335 5.335 0 2.945 2.39 5.334 5.335 5.334 2.947 0 5.335-2.39 5.335-5.335 0-2.948-2.388-5.336-5.335-5.336z" opacity=".153"/></g></svg>