<svg width="1982" height="422" viewBox="0 0 1982 422" xmlns="http://www.w3.org/2000/svg"><title>trees</title><defs><linearGradient x1="50%" y1="-63.601%" x2="50%" y2="152.966%" id="a"><stop stop-color="#FFF" offset="0%"/><stop stop-color="#FCFDFE" offset="27%"/><stop stop-color="#F2F9FA" offset="50%"/><stop stop-color="#E1F1F4" offset="70%"/><stop stop-color="#C9E6EC" offset="89%"/><stop stop-color="#B8DEE6" offset="100%"/></linearGradient></defs><g fill-rule="nonzero" fill="none"><g fill="#0C487E"><path d="M510.67 363.17c15.15-2.89 21.28-6.79 21.28-6.79-9.44-3.71-20-16.66-29.3-31.12 11.07-2.17 15.57-5 15.57-5-6.59-2.59-13.88-11.16-20.52-21.07 9.46-1.8 13.29-4.24 13.29-4.24-15.19-6-34.89-50.28-34.89-50.28s-19.7 44.31-34.89 50.28c0 0 3.14 2.73 13.08 4.55-6.58 9.78-13.79 18.21-20.32 20.77 0 0 3.69 3.21 15.32 5.4-9.29 14.31-19.71 27.07-29.06 30.74 0 0 5 4.37 20.95 7.28-10.54 15.67-22.09 29.15-32.53 33.25 0 0 13.68 11.88 65 11.88s69.92-11.88 69.92-11.88c-10.57-4.18-22.27-17.94-32.9-33.77zM1713.02 363.5c15.15-2.89 21.28-6.79 21.28-6.79-9.44-3.71-20-16.66-29.3-31.12 11.07-2.17 15.57-5 15.57-5-6.59-2.59-13.88-11.16-20.52-21.07 9.46-1.8 13.29-4.24 13.29-4.24-15.19-6-34.89-50.28-34.89-50.28s-19.7 44.31-34.89 50.28c0 0 3.14 2.73 13.08 4.55-6.58 9.78-13.79 18.21-20.32 20.77 0 0 3.69 3.21 15.32 5.4-9.29 14.31-19.71 27.07-29.06 30.74 0 0 5 4.37 20.95 7.28-10.54 15.67-22.09 29.15-32.53 33.25 0 0 13.68 11.88 65 11.88s69.92-11.88 69.92-11.88c-10.57-4.18-22.27-17.94-32.9-33.77z"/><path d="M619.2 346.82c20.82-4 29.25-9.33 29.25-9.33-13-5.1-27.44-22.9-40.28-42.78 15.22-3 21.4-6.91 21.4-6.91-9.06-3.56-19.09-15.34-28.21-29 13-2.48 18.27-5.83 18.27-5.83-20.88-8.2-48-69.12-48-69.12s-27.07 60.92-48 69.12c0 0 4.32 3.75 18 6.25-9.05 13.45-19 25-27.93 28.55 0 0 5.08 4.41 21.06 7.43-12.76 19.67-27.09 37.21-39.95 42.26 0 0 6.92 6 28.8 10-14.42 21.54-30.29 40.1-44.61 45.74 0 0 18.81 16.33 89.29 16.33s96.12-16.33 96.12-16.33c-14.54-5.7-30.6-24.56-45.21-46.38zM1009.2 346.82c20.82-4 29.25-9.33 29.25-9.33-13-5.1-27.44-22.9-40.28-42.78 15.22-3 21.4-6.91 21.4-6.91-9.06-3.56-19.08-15.34-28.21-29 13-2.48 18.27-5.83 18.27-5.83-20.88-8.2-48-69.12-48-69.12s-27.08 60.92-48 69.12c0 0 4.32 3.75 18 6.25-9.05 13.45-19 25-27.93 28.55 0 0 5.08 4.41 21.07 7.43-12.76 19.67-27.09 37.21-39.95 42.26 0 0 6.92 6 28.8 10-14.43 21.54-30.3 40.1-44.62 45.74 0 0 18.81 16.33 89.29 16.33s96.12-16.33 96.12-16.33c-14.55-5.7-30.6-24.56-45.21-46.38z"/><path d="M856.93 323.81c26-5 36.51-11.65 36.51-11.65-16.19-6.36-34.24-28.58-50.28-53.39 19-3.72 26.71-8.63 26.71-8.63C858.56 245.7 846 231 834.65 214c16.23-3.1 22.8-7.28 22.8-7.28-26.06-10.24-59.86-86.27-59.86-86.27s-33.79 76-59.86 86.27c0 0 5.39 4.68 22.45 7.8-11.3 16.79-23.67 31.24-34.86 35.63 0 0 6.34 5.5 26.29 9.27-15.93 24.55-33.81 46.44-49.86 52.75 0 0 8.64 7.49 35.94 12.49-18.09 26.88-37.9 50-55.82 57.05 0 0 23.47 20.38 111.45 20.38s120-20.38 120-20.38c-18.12-7.12-38.15-30.71-56.39-57.9zM1925.06 330.36c26-5 36.51-11.65 36.51-11.65-16.19-6.36-34.24-28.58-50.28-53.39 19-3.72 26.71-8.63 26.71-8.63-11.31-4.44-23.87-19.14-35.22-36.14 16.23-3.1 22.8-7.28 22.8-7.28-26.06-10.24-59.86-86.27-59.86-86.27s-33.79 76-59.86 86.27c0 0 5.39 4.68 22.45 7.8-11.3 16.79-23.67 31.24-34.86 35.63 0 0 6.34 5.5 26.29 9.27-15.93 24.55-33.81 46.44-49.86 52.75 0 0 8.64 7.49 35.94 12.49-18.09 26.88-37.9 50-55.82 57.05 0 0 23.47 20.38 111.45 20.38s120-20.38 120-20.38c-18.12-7.12-38.15-30.71-56.39-57.9zM175.06 343.36c26-5 36.51-11.65 36.51-11.65-16.19-6.36-34.24-28.58-50.28-53.39 19-3.72 26.71-8.63 26.71-8.63-11.31-4.44-23.87-19.14-35.22-36.14 16.23-3.1 22.8-7.28 22.8-7.28-26.06-10.24-59.86-86.27-59.86-86.27s-33.79 76-59.86 86.27c0 0 5.39 4.68 22.45 7.8-11.3 16.79-23.67 31.24-34.86 35.63 0 0 6.34 5.5 26.29 9.27-15.93 24.55-33.81 46.44-49.86 52.75 0 0 8.64 7.49 35.94 12.49-18.09 26.88-37.9 50-55.82 57.05 0 0 23.47 20.38 111.45 20.38s120-20.38 120-20.38c-18.12-7.12-38.15-30.71-56.39-57.9z"/><path d="M714 354.94c18.13-3.46 25.46-8.13 25.46-8.13-11.29-4.44-23.88-19.93-35.07-37.24 13.25-2.59 18.63-6 18.63-6-7.89-3.1-16.62-13.35-24.56-25.22 11.32-2.16 15.9-5.08 15.9-5.08-18.18-7.14-41.75-60.17-41.75-60.17s-23.57 53-41.75 60.17c0 0 3.76 3.26 15.66 5.44-7.88 11.71-16.51 21.79-24.31 24.85 0 0 4.42 3.84 18.34 6.46-11.11 17.13-23.58 32.39-34.78 36.79 0 0 6 5.22 25.07 8.71-12.62 18.75-26.43 34.88-38.93 39.79 0 0 16.37 14.21 77.74 14.21 61.37 0 83.68-14.21 83.68-14.21-12.59-4.96-26.57-21.37-39.33-40.37zM928.71 354.94c18.13-3.46 25.46-8.13 25.46-8.13-11.29-4.44-23.88-19.93-35.07-37.24 13.25-2.59 18.63-6 18.63-6-7.89-3.1-16.62-13.35-24.56-25.22 11.32-2.16 15.9-5.08 15.9-5.08-18.18-7.14-41.75-60.17-41.75-60.17s-23.57 53-41.75 60.17c0 0 3.76 3.26 15.66 5.44-7.88 11.71-16.51 21.79-24.31 24.85 0 0 4.42 3.84 18.34 6.46-11.11 17.13-23.58 32.39-34.78 36.79 0 0 6 5.22 25.07 8.71-12.62 18.75-26.43 34.88-38.93 39.79 0 0 16.37 14.21 77.74 14.21 61.37 0 83.64-14.21 83.64-14.21-12.59-4.96-26.57-21.37-39.29-40.37zM1120.32 340.79c22.46-4.29 31.56-10.07 31.56-10.07-14-5.5-29.6-24.7-43.46-46.15 16.42-3.22 23.09-7.46 23.09-7.46-9.77-3.84-20.59-16.55-30.44-31.25 14-2.68 19.71-6.29 19.71-6.29-22.53-8.85-51.76-74.57-51.76-74.57s-29.21 65.72-51.74 74.57c0 0 4.66 4 19.4 6.74-9.76 14.51-20.46 27-30.13 30.8 0 0 5.48 4.75 22.73 8-13.77 21.22-29.22 40.14-43.1 45.59 0 0 7.46 6.47 31.07 10.8-15.63 23.24-32.76 43.23-48.25 49.31 0 0 20.29 17.61 96.33 17.61 76.04 0 103.69-17.6 103.69-17.6-15.62-6.15-32.93-26.49-48.7-50.03zM1817.32 334.79c22.46-4.29 31.56-10.07 31.56-10.07-14-5.5-29.6-24.7-43.46-46.15 16.42-3.22 23.09-7.46 23.09-7.46-9.77-3.84-20.59-16.55-30.44-31.25 14-2.68 19.71-6.29 19.71-6.29-22.53-8.85-51.76-74.57-51.76-74.57s-29.21 65.72-51.74 74.57c0 0 4.66 4 19.4 6.74-9.76 14.51-20.46 27-30.13 30.8 0 0 5.48 4.75 22.73 8-13.77 21.22-29.22 40.14-43.1 45.59 0 0 7.46 6.47 31.07 10.8-15.63 23.24-32.76 43.23-48.25 49.31 0 0 20.29 17.61 96.33 17.61 76.04 0 103.69-17.6 103.69-17.6-15.62-6.15-32.93-26.49-48.7-50.03zM282.32 352.79c22.46-4.29 31.56-10.07 31.56-10.07-14-5.5-29.6-24.7-43.46-46.15 16.42-3.22 23.09-7.46 23.09-7.46-9.77-3.84-20.59-16.55-30.44-31.25 14-2.68 19.71-6.29 19.71-6.29-22.53-8.85-51.76-74.57-51.76-74.57s-29.21 65.72-51.74 74.57c0 0 4.66 4 19.4 6.74-9.76 14.51-20.46 27-30.13 30.8 0 0 5.48 4.75 22.73 8-13.77 21.22-29.22 40.14-43.1 45.59 0 0 7.46 6.47 31.07 10.8-15.63 23.24-32.76 43.23-48.25 49.31 0 0 20.29 17.61 96.33 17.61 76.04 0 103.69-17.6 103.69-17.6-15.62-6.15-32.93-26.49-48.7-50.03zM1496.3 340.79c22.46-4.29 31.56-10.07 31.56-10.07-14-5.5-29.6-24.7-43.46-46.15 16.42-3.22 23.09-7.46 23.09-7.46-9.77-3.84-20.59-16.55-30.44-31.25 14-2.68 19.71-6.29 19.71-6.29-22.53-8.85-51.74-74.57-51.74-74.57s-29.21 65.72-51.74 74.57c0 0 4.66 4 19.4 6.74-9.76 14.51-20.46 27-30.13 30.8 0 0 5.48 4.75 22.73 8-13.77 21.22-29.22 40.14-43.1 45.59 0 0 7.46 6.47 31.07 10.8-15.63 23.24-32.76 43.23-48.25 49.31 0 0 20.29 17.61 96.33 17.61 76.04 0 103.72-17.63 103.72-17.63-15.65-6.16-32.96-26.5-48.75-50z"/><path d="M1245.82 327.85c24.77-4.73 34.8-11.11 34.8-11.11-15.43-6.06-32.64-27.24-47.92-50.89 18.11-3.55 25.46-8.22 25.46-8.22-10.78-4.23-22.71-18.25-33.56-34.46 15.47-3 21.73-6.94 21.73-6.94-24.84-9.76-57.05-82.23-57.05-82.23s-32.21 72.47-57.05 82.23c0 0 5.14 4.46 21.39 7.44-10.77 16-22.56 29.77-33.22 34 0 0 6 5.24 25.06 8.84-15.18 23.4-32.22 44.27-47.52 50.28 0 0 8.23 7.14 34.26 11.9-17.24 25.62-36.12 47.67-53.2 54.38 0 0 22.38 19.42 106.23 19.42 83.85 0 114.35-19.42 114.35-19.42-17.24-6.82-36.34-29.25-53.76-55.22z"/><path d="M1385.72 328.74c27.57-5.36 38.73-12.59 38.73-12.59-17.18-6.87-36.33-30.88-53.34-57.69 20.15-4 28.33-9.32 28.33-9.32-12-4.8-25.27-20.68-37.36-39.07 17.22-3.34 24.19-7.86 24.19-7.86-27.65-11.06-63.5-93.21-63.5-93.21s-35.85 82.15-63.5 93.21c0 0 5.72 5.05 23.81 8.43-12 18.14-25.11 33.75-37 38.5 0 0 6.72 5.94 27.89 10-16.9 26.53-35.87 50.18-52.89 57 0 0 9.16 8.09 38.13 13.5-19.19 29-40.2 54-59.21 61.64 0 0 24.9 22 118.23 22 93.33 0 127.27-22 127.27-22-19.18-7.68-40.44-33.11-59.78-62.54z"/><path d="M1618.72 324.74c27.57-5.36 38.73-12.59 38.73-12.59-17.18-6.87-36.33-30.88-53.34-57.69 20.15-4 28.33-9.32 28.33-9.32-12-4.8-25.27-20.68-37.36-39.07 17.22-3.34 24.19-7.86 24.19-7.86-27.65-11.06-63.5-93.21-63.5-93.21s-35.85 82.15-63.5 93.21c0 0 5.72 5.05 23.81 8.43-12 18.14-25.11 33.75-37 38.5 0 0 6.72 5.94 27.89 10-16.9 26.53-35.87 50.18-52.89 57 0 0 9.16 8.09 38.13 13.5-19.19 29-40.2 54-59.21 61.64 0 0 24.9 22 118.23 22 93.33 0 127.27-22 127.27-22-19.18-7.68-40.44-33.11-59.78-62.54zM416.72 335.74c27.57-5.36 38.73-12.59 38.73-12.59-17.18-6.87-36.33-30.88-53.34-57.69 20.15-4 28.33-9.32 28.33-9.32-12-4.8-25.27-20.68-37.36-39.07 17.22-3.34 24.19-7.86 24.19-7.86-27.65-11.06-63.5-93.21-63.5-93.21s-35.85 82.15-63.5 93.21c0 0 5.72 5.05 23.81 8.43-12 18.14-25.11 33.75-37 38.5 0 0 6.72 5.94 27.89 10-16.9 26.53-35.87 50.18-52.89 57 0 0 9.16 8.09 38.13 13.5-19.19 29-40.2 54-59.21 61.64 0 0 24.9 22 118.23 22 93.33 0 127.27-22 127.27-22-19.18-7.68-40.44-33.11-59.78-62.54z"/></g><path d="M738.56 352.34c-3.24-3.815-7.126-7.03-11.48-9.5-2.21-1.18-4.604-1.97-7.08-2.34-2.73-.41-5.51 0-8.26-.31-7.48-.76-17.81-2.44-24 3 0 0-5.92-1.39-6.38-2.87l-2.36 4.39 7.24-.32s-3.8 4.3-3.91 8.54c-.11 4.24 3.22 8.52 2 11.37-.942 1.884-2.44 3.434-4.29 4.44v10c0 2.87-.33 12.69-.33 12.69l3.8-.17s-1.36-3.07-1.33-4.24c.03-1.17.4-12.34 2.6-14.43s8.68-7.41 8.68-7.41-3.5 6.13-3.09 7.91c.41 1.78 7.36 12.32 7.59 13.19.23.87 1.28 3.27 1.28 3.27l4.89.38-2.64-3.4s-8-9.46-5.89-12.54c2.11-3.08 5.49-7 5.49-7s7.26.9 9.92-.4c0 0 1.87 6.09 2.55 8.83.68 2.74 2.17 9.76 2.17 9.76l-.82 8.4 4.3.72s-1.81-6.11-1.76-8c.05-1.89.82-8.32.36-11-.46-2.68-.65-6.92-.65-6.92s1-.23 2.32-.63c.64 1.56 1.3 3.21 1.7 4.31 1 2.66 3.18 9.48 3.18 9.48l.05 8.43 4.35.27s-2.44-5.89-2.59-7.78c-.15-1.89 0-8.36-.78-11-.5-1.75-.95-4.23-1.19-5.67.585-.31 1.102-.736 1.52-1.25 1.51-1.39 3.8-3.21 5.93-3.29 3.12-.1 5.51 3.29 7.13 5.55 1.015 1.272 1.742 2.75 2.13 4.33.065.32.19.626.37.9.16.33 1 .23 1 .23s1.51.77 2 .32c.28-.28.49-.623.61-1 .34-1.12.59-2.27.92-3.4.08-.332.254-.633.5-.87.465-.364.953-.698 1.46-1 1.87 1.22 2.37 1.24 2.5 1.11.203-.67.123-1.39-.22-2 .333.193.667.397 1 .61.89.553 1.702 1.226 2.41 2 .09-.53.13-2.56-3.88-3.67l1.77-.91s7.58 3 9.74 3c1.253.033 2.506-.088 3.73-.36 0 0-8.27-2.17-10.46-4.83 0 0 10.13-6.16 18.51-.79 0 0-4.67-4.65-3.81-6.23.86-1.58 4.71-3.25 4.91-3.35.2-.1 6.33-5.2 6.33-5.2s-6 3.46-7.89 3.68l.16-2.81s-3.95 5.86-5.91 7c-1.96 1.14-6.75.44-10.25 3.65-.47.43-1 .84-1.45 1.23-.787.624-1.61 1.2-2.47 1.72-.74.45-2.65 2-3.11.49-.13-.43-.31-.85-.46-1.28-.15-.43-.51-.95-.35-1.38.16-.43.63-.48 1-.61.918-.376 1.8-.838 2.63-1.38.888-.537 1.685-1.212 2.36-2 1.42-1.453 3.068-2.662 4.88-3.58-2.207.172-4.314.99-6.06 2.35 0 0-1.14.77-1.86.57 0 0 .54-6.87 2.62-9.89 1.56-2.014 3.604-3.602 5.94-4.62l-4.52.77s3.51-4 6-4.42c1.95-.254 3.92-.305 5.88-.15l-3.11-1.94 6.53-1.29s-19.1-3.38-21.87 20.91c-.275 1.412-1.002 2.696-2.07 3.66.63-1.117.886-2.407.73-3.68-.11-1.07-.76-1.41-1.65-.83-1.43.867-2.388 2.34-2.6 4-.026.483-.026.967 0 1.45 0-.39-1.61-1.65-1.9-1.94-1.04-.94-1.99-1.98-2.94-3.03zM1272.86 299.96c.03-3.49 3.09-7.09 3.09-7.09l-5.95.37 1.86-3.6c.41 1.21 5.29 2.26 5.29 2.26 5-4.61 13.56-3.38 19.73-2.87 2.683.238 5.38.28 8.07.13.41 0 2.51.09 2.73-.37 1.082-2.485 1.84-5.1 2.25-7.78.33-1.69.57-3.39.85-5.1-.4.022-.8.022-1.2 0-1.372-.118-2.616-.854-3.38-2-.51-.71-.25-1.26.63-1.39 1.026-.155 2.074.013 3 .48-.817-.796-1.862-1.317-2.99-1.49-20.06-1.49-17.91-17.3-17.91-17.3l1.27 5.32 1.49-2.62c-.065 1.616.04 3.235.31 4.83.43 2 3.83 4.78 3.83 4.78l-.78-3.69c.916 1.887 2.292 3.513 4 4.73 2.55 1.61 8.22 1.83 8.22 1.83.14-.6-.53-1.51-.53-1.51-1.176-1.39-1.916-3.093-2.13-4.9.813 1.458 1.86 2.772 3.1 3.89.66.53 1.235 1.16 1.7 1.87.52.7.97 1.45 1.34 2.24.11.27.22.68.53.77.31.09.8-.21 1.12-.34.32-.13.68-.29 1-.42 1.21-.43-.11-1.94-.5-2.54-.46-.697-.96-1.365-1.5-2-.34-.4-.693-.783-1.06-1.15-2.75-2.77-2.36-6.73-3.34-8.3-.98-1.57-5.92-4.63-5.92-4.63h2.32c-.24-1.54-3.29-6.37-3.29-6.37s4.38 4.88 4.48 5c.1.12 1.59 3.28 2.92 3.92 1.33.64 5-3.34 5-3.34-4.14 7.06 1.25 15.19 1.25 15.19 2.11-1.88 3.63-8.76 3.63-8.76.264 1 .405 2.027.42 3.06 0 1.78-2.19 8.11-2.19 8.11l.8 1.43c.79-3.34 2.45-3.36 2.89-3.31-.61.592-1.14 1.265-1.57 2-.167.273-.323.55-.47.83.484-.3 1.068-.39 1.62-.25.11.11.11.52-.83 2.09.252.407.53.798.83 1.17.202.196.455.332.73.39.94.23 1.89.4 2.82.64.317.087.608.248.85.47.38.37-.2 1.63-.2 1.63s.11.66-.16.8c-.22.156-.468.268-.73.33-1.287.41-2.468 1.095-3.46 2.01-.132.144-.2.335-.19.53 0 1.52.22 3.05.15 4.57 0 0 2 6.92-10 24.42-.336.43-.754.786-1.23 1.05.22 1.18.63 3.21 1.06 4.65.65 2.13.66 7.46.81 9 .15 1.54 2.25 6.36 2.25 6.36l-3.59-.15-.17-6.94s-1.92-5.58-2.76-7.75c-.35-.9-.92-2.25-1.46-3.52-1.08.35-1.9.55-1.9.55s.22 3.49.64 5.68c.42 2.19-.12 7.48-.13 9-.01 1.52 1.57 6.56 1.57 6.56l-3.55-.53.55-6.92s-1.33-5.75-1.94-8c-.61-2.25-2.23-7.23-2.23-7.23-2.17 1.11-8.15.48-8.15.48s-2.69 3.26-4.41 5.83c-1.72 2.57 5 10.23 5 10.23l2.22 2.76-4-.24s-.9-2-1.1-2.67c-.2-.67-6.09-9.28-6.45-10.74-.36-1.46 2.42-6.55 2.42-6.55s-5.25 4.47-7 6.23c-1.75 1.76-1.91 10.94-1.92 11.91.23 1.203.62 2.37 1.16 3.47l-3.12.2s.06-8.08.08-10.45c.02-2.37-.13-8.23-.13-8.23 1.5-.847 2.707-2.13 3.46-3.68 1-2.36-1.85-5.84-1.82-9.33zM411 371.86c1-2.36-1.85-5.84-1.82-9.33.03-3.49 3.09-7.09 3.09-7.09l-5.95.37 1.86-3.6c.41 1.21 5.3 2.26 5.3 2.26 5-4.61 13.56-3.38 19.73-2.87 2.683.238 5.38.28 8.07.13.41 0 2.51.09 2.73-.37 1.082-2.485 1.84-5.1 2.25-7.78.33-1.69.57-3.39.85-5.1-.4.022-.8.022-1.2 0-1.372-.118-2.616-.854-3.38-2-.51-.71-.25-1.26.63-1.39 1.026-.155 2.074.013 3 .48-.83-.846-1.91-1.4-3.08-1.58-20.06-1.49-17.91-17.3-17.91-17.3l1.27 5.32 1.49-2.62c-.065 1.616.04 3.235.31 4.83.43 2 3.83 4.78 3.83 4.78l-.78-3.69c.916 1.887 2.292 3.513 4 4.73 2.55 1.61 8.22 1.83 8.22 1.83.14-.6-.53-1.51-.53-1.51-1.176-1.39-1.916-3.093-2.13-4.9.813 1.458 1.86 2.772 3.1 3.89.66.53 1.235 1.16 1.7 1.87.52.7.97 1.45 1.34 2.24.11.27.22.68.53.77.31.09.8-.21 1.12-.34.32-.13.68-.29 1-.42 1.21-.43-.11-1.94-.5-2.54-.46-.697-.96-1.365-1.5-2-.34-.4-.693-.783-1.06-1.15-2.75-2.77-2.36-6.73-3.34-8.3-.98-1.57-5.92-4.63-5.92-4.63h2.32c-.24-1.54-3.29-6.37-3.29-6.37s4.38 4.88 4.48 5c.1.12 1.59 3.28 2.92 3.92 1.33.64 5-3.34 5-3.34-4.14 7.06 1.25 15.19 1.25 15.19 2.11-1.88 3.63-8.76 3.63-8.76.264 1 .405 2.027.42 3.06 0 1.78-2.19 8.11-2.19 8.11l.8 1.43c.79-3.34 2.45-3.36 2.89-3.31-.61.592-1.14 1.265-1.57 2-.167.273-.323.55-.47.83.484-.3 1.068-.39 1.62-.25.11.11.11.52-.83 2.09.252.407.53.798.83 1.17.202.196.455.332.73.39.94.23 1.89.4 2.82.64.317.087.608.248.85.47.38.37-.2 1.63-.2 1.63s.11.66-.16.8c-.22.156-.468.268-.73.33-1.29.444-2.464 1.168-3.44 2.12-.132.144-.2.335-.19.53 0 1.52.22 3.05.15 4.57 0 0 2 6.92-10 24.42-.336.43-.754.786-1.23 1.05.22 1.18.63 3.21 1.06 4.65.65 2.13.66 7.46.81 9 .15 1.54 2.25 6.36 2.25 6.36l-3.59-.15-.17-6.94s-1.92-5.58-2.76-7.75c-.35-.9-.92-2.25-1.46-3.52-1.08.35-1.9.55-1.9.55s.22 3.49.64 5.68c.42 2.19-.12 7.48-.13 9-.01 1.52 1.62 6.55 1.62 6.55l-3.55-.53.55-6.92s-1.33-5.75-1.94-8c-.61-2.25-2.23-7.23-2.23-7.23-2.17 1.11-8.15.48-8.15.48s-2.69 3.26-4.41 5.83c-1.72 2.57 5 10.23 5 10.23l2.22 2.76-4-.24s-.9-2-1.1-2.67c-.2-.67-6.08-9.24-6.49-10.71-.41-1.47 2.42-6.55 2.42-6.55s-5.25 4.47-7 6.23c-1.75 1.76-1.91 10.94-1.92 11.91.23 1.203.62 2.37 1.16 3.47l-3.12.2s.06-8.08.08-10.45c.02-2.37-.13-8.23-.13-8.23 1.525-.85 2.75-2.148 3.51-3.72z" fill="#FFF"/><path d="M1302.27 79.72c-189.22-28.78-291.73 2-502.59 49.66-155.33 30.47-354.51 11.95-448.68 2.52-81-10.6-138-14.4-171-11.4-176.1 16.01-198.145 28.168-167.5 53C31.474 188.875 144.307 218.042 351 261l1727.5-40.5c-23.662-119.86-37.996-185.36-43-196.5-36.087-80.34-148 73.5-233 51-66.785-17.678-150.618-12.048-251.5 16.89-60 8.16-143.35 7.11-248.73-12.17z" fill="url(#a)" transform="translate(-29 240)"/></g></svg>