<svg xmlns="http://www.w3.org/2000/svg" width="168" height="168" viewBox="0 0 168 168"><style>.st0{fill-rule:evenodd;clip-rule:evenodd;stroke-width:1.6979;stroke-miterlimit:10}.st0,.st1,.st2,.st3{fill:none;stroke:#fff}.st1{stroke-width:2;stroke-miterlimit:10}.st2,.st3{fill-rule:evenodd;clip-rule:evenodd}.st2{stroke-miterlimit:10;stroke-width:2}.st3{stroke-width:1.9752}.st3,.st4,.st5,.st6{stroke-miterlimit:10}.st4{display:inline;stroke:#000}.st5,.st6{fill:none;stroke:#fff}.st5{stroke-width:1.1716}.st6{fill-rule:evenodd;clip-rule:evenodd}.st7{fill:#fff}.st8{display:inline}.st9{fill-rule:evenodd;clip-rule:evenodd;fill:none;stroke:#fff;stroke-width:1.8045;stroke-miterlimit:10}.st10{display:none}</style><path class="st10 st4" d="M-2.5-1.5h172v171h-172z" id="Layer_4"/><g class="st10 st8" id="showrrom"><path class="st1" d="M33.3 112.2V83.8c0-.1.1-.3.1-.4.3-2.1 1-4 2.2-5.6 1.6-2.1 3.7-3.7 6.3-4.3.4-.1.6-.3.7-.6l8.1-21c.9-2.4 2.4-4.4 4.7-5.8 2-1.2 4.3-1.7 6.6-1.7h43.8c1.5 0 2.9.2 4.3.7 3.4 1.2 5.5 3.6 6.8 6.9 2.7 6.8 5.3 13.7 7.9 20.6.2.6.5 1 1.2 1 .1 0 .3.1.4.1 4 1.5 6.5 4.3 7.6 8.4.2.6.2 1.2.3 1.8v28.3h-8v8.4c0 .7 0 1.4-.2 2-.6 3.1-2.4 5.2-5.5 5.9-3.2.7-5.9-.1-8-2.7-1.2-1.5-1.6-3.3-1.6-5.1v-8.5H56.5v8.2c0 .5 0 1-.1 1.6-.4 3.2-2.1 5.4-5.1 6.4-3.6 1.2-7.5-.4-9.1-3.7-.6-1.2-.8-2.4-.8-3.7v-8.9h-6.2c-.5.1-1.2.1-1.9.1zm83.3-39c-.1-.2-.1-.3-.2-.5l-4.2-11.4c-.8-2-1.5-4.1-2.3-6.1-.8-2-2.3-3-4.6-3h-43c-2.2 0-3.7 1-4.5 3-.2.5-.4 1-.5 1.5-2 5.3-4 10.7-5.9 16-.1.1-.1.3-.2.5h65.4zm-5.2 15.4c0 4 3.2 7.2 7.1 7.2 3.9 0 7-3.2 7-7.2s-3.1-7.2-7-7.2c-4 0-7.1 3.2-7.1 7.2zm-69.2 0c0 .4.1.9.1 1.3.7 4 4.7 6.7 8.6 5.7 3.4-.9 5.6-4.2 5.2-8-.5-4.1-4.3-6.9-8.3-6.1-3.2.7-5.6 3.6-5.6 7.1z" id="t1Nm7r_4_"/><circle class="st1" cx="83.5" cy="86.5" r="79.5"/></g><g id="Valuation"><path class="st7" d="M109.6 113.3h-52v7.2c0 .5 0 1.1-.1 1.7-.5 3.7-2.4 6.1-5.8 7.3-.9.3-1.8.4-2.7.4-3.2 0-6.2-1.8-7.6-4.6-.6-1.3-.9-2.6-.9-4.1v-7.9h-8l.1-29.7v-.2c.3-2.3 1.1-4.4 2.4-6.1 1.9-2.5 4.2-4 6.8-4.7l8.1-21c1.1-2.8 2.8-4.9 5.1-6.3 2-1.2 4.4-1.9 7.2-1.9h10v2h-10c-2.4 0-4.4.5-6.1 1.6-1.9 1.2-3.3 2.9-4.3 5.3l-8.1 21c-.3.7-.7 1.1-1.4 1.2-2.3.5-4.1 1.8-5.7 3.9-1.1 1.5-1.8 3.2-2 5.2 0 .1 0 .3-.1.4v27.2h8.1v9.9c0 1.2.2 2.3.7 3.3 1 2.1 3.3 3.5 5.8 3.5.7 0 1.4-.1 2.1-.3 2.6-.9 4.1-2.7 4.5-5.6.1-.5.1-1 .1-1.4v-9.2h52l1.8 1.9zm17.7 1.7v5.7c0 .6 0 1.4-.2 2.2-.7 3.6-2.9 5.9-6.3 6.7-3.6.8-6.7-.2-9-3.1-1.2-1.5-1.8-3.4-1.8-5.8v-7l2 1.9v5.1c0 1.9.4 3.4 1.3 4.5 1.8 2.2 4.1 3 6.9 2.4 2.6-.6 4.2-2.3 4.8-5.1.1-.6.1-1.3.2-1.9v-3.7l2.1-1.9zm8-8.2v6.5h-5.9l1.8-2h2.3v-2.6l1.8-1.9zm-86.1-10c-3.9 0-7.3-2.9-7.9-6.7-.1-.3-.1-.7-.1-1v-.6c0-3.9 2.8-7.3 6.5-8 .5-.1 1-.1 1.5-.1 4.1 0 7.5 3.1 7.9 7.1.5 4.2-2 8-5.9 9-.6.2-1.3.3-2 .3zm-6-8.3v.4c0 .3 0 .6.1.8.5 2.9 3 5 5.9 5 .5 0 1-.1 1.5-.2 3-.8 4.8-3.7 4.5-6.9-.4-3-2.9-5.3-5.9-5.3-.4 0-.8 0-1.1.1-3 .7-4.9 3.1-5 6.1zm29.4-14.3H49.7l.5-1.5c0-.1.1-.2.1-.3l6.1-16.5c.1-.4.3-.7.4-1.1 1-2.4 2.8-3.6 5.4-3.6h9.6v2h-9.6c-1.8 0-2.9.7-3.6 2.4-.1.3-.3.7-.4 1l-.1.4-5.6 15.2H72s0 .7.1 1c.2.5.5 1 .5 1z" id="t1Nm7r_2_"/><circle class="st1" cx="83.5" cy="86.5" r="79.5"/><path class="st7" d="M112.5 42.3c-2.2-2.2-4.9-3.3-8-3.3H78.3c-3.1 0-4.2.7-5.2 3.5V72c0 .6.3 1.2.4 1.7.6 1.9 1.5 3.6 3 5 13.2 13.2 26.4 26.5 39.6 39.6.7.7 1.6 1.6 2.4 1.6h1.7c1.3 0 2.3-1.4 3.2-2.4 9.4-9.4 18.9-18.8 28.2-28.2 1-1 1.4-1.9 2.4-3.3v-1.7c-1-1.3-1.5-2.3-2.4-3.2-13-12.8-26.1-25.8-39.1-38.8zm-32 9.4c0-2.8 2.2-5.1 5-5.1s5.1 2.2 5.1 5-2.3 5.1-5.1 5.1c-2.7 0-5-2.3-5-5zm38.8 54.5s0-.7-.1-.8l-3.2-3.2c-.1-.1-.4-.1-.3-.3.8-2.1 1-4.2.7-6.4-.2-1.5-.7-2.9-1.6-4.2-.7-1-1.6-1.8-2.5-2.6-.2-.2-.6-.4-.8-.2-1.3 1.3-2.8 2.5-4.1 3.8l-.5.5-4.8-4.8 3.9-3.9h-.1c-2-1.5-3.9-3-5.4-5-1.7-2.4-2.5-4.9-2.4-7.9.1-2.7 1.1-5.1 2.7-7.4.5-.7 1-1.4 1.6-2l1.8-1.8c.4-.4.8-.7 1.2-1 1.2-.9 2.5-1.8 4-2.3.3-.1.4 0 .5.2.8 1.3 1.7 2.6 2.5 3.9.5.7 1 1.5 1.5 2.2-.5.2-.9.4-1.4.6-1.7.9-3.2 2.2-4.4 3.7-.9 1.2-1.3 2.6-1 4.1.3 1.4 1.2 2.5 2.2 3.5 1 1 2.2 1.9 3.4 2.6.3.2.2-.1.4-.3 1.9-1.9 3.7-4 5.6-6l.4-.4.7.7 4.2 4.2c.2.2.2.4 0 .6-1.7 1.7-3.4 3.4-5.1 5-.5.5-.5.4 0 .8 1 1 1.9 2.2 2.6 3.5.7 1.6 1.1 3.4 1 5.2 0 .1.2.4.2.5l12.6-12.6.1.1c.9.9 1.8 2 2.7 2.9.9.9 1.9 2 2.7 2.8-7.4 7.6-14.4 14.6-21.5 21.7z"/></g><g class="st10 st8" id="servicing"><g id="_x34_4SJQY_2_"><path class="st2" d="M58 39c2.3 1.3 4.7 2.4 6.9 3.9 4 2.6 5.9 6.7 6.5 11.2.3 2.6-.3 5.3-.3 8 0 1 .6 2.1 1.3 2.8 7.2 7.3 14.5 14.6 21.7 21.9 4.1 4.2 8.2 8.5 12.3 12.6.6.6 1.8.9 2.6.7 10.2-2.6 21 3.6 22.6 14.6 0 .3.4.6.5.9v3.9c-.6 2-1.3 4-2 6.4l-11.2-11.2c-.7-.7-1.5-1.4-2.4-2-2.8-1.6-5.4-.9-7.2 1.3-1.8 2.2-2.3 4.7 0 7.3 3 3.3 6.1 6.5 9.2 9.6 1 1 2.2 1.9 3.5 3-1.9.9-3.2 1.5-4.4 2.1h-7.8c-3.5-1.6-7-3-9.7-6.1-2.5-2.9-4.1-6.1-4.3-9.9-.1-2.4.4-4.8.3-7.2 0-.9-.5-2-1.2-2.7C85 100 75 90 65.2 79.9c-3.2-3.3-6-5.7-11.3-4.8-7 1.1-12.4-2.7-16-8.5-3.4-5.5-3.2-11.4-.8-17.5 4 3.9 7.7 7.5 11.5 11.2 2.5 2.5 4.6 3.2 7 2.1 4.2-1.8 5-6.4 1.7-9.8-3.8-3.9-7.8-7.7-11.9-11.9 1.6-.7 2.9-1.3 4.2-1.9 2.9.2 5.6.2 8.4.2z"/><path class="st2" d="M43 136c-2.8-1.2-5.4-2.6-6.6-5.6-1.2-3.2-1.2-6.5 1.2-8.9 10.2-10 20.5-19.9 30.7-29.6 3.5 3.4 7.6 7.5 11.9 11.7-.5.6-1 1.2-1.6 1.7-8.4 8.4-16.7 16.9-25.1 25.2-2.1 2.1-4.8 3.7-7.2 5.5H43zm89.2-90.2c-2 3.5-4 7-5.8 10.6-.8 1.6-1.7 2.7-3.4 3.4-1.1.5-2.1 1.3-3.2 1.7-7.3 2.7-12.2 8.5-17.4 13.8-2 2-3.9 4-6.1 6.3-2-2.1-3.8-3.9-5.6-5.7-1.2-1.1-.3-1.8.4-2.6 3.4-3.4 6.6-6.8 10.1-10.1 3.2-3 6-6.3 7.4-10.5 1.8-5.4 5.6-8.6 10.6-10.7 1.8-.7 3.4-1.9 5.1-2.9h1.9l5.8 5.8c.2.3.2.6.2.9z"/></g><circle class="st1" cx="83.5" cy="86.5" r="79.5"/></g><g id="finance" class="st10"><circle class="st8 st1" cx="83.5" cy="86.5" r="79.5"/><g id="qau3FX_1_" class="st8"><path class="st9" d="M59.5 62.4L72 74.9l25.7-25.7c3.5 3.6 6.9 7 10.2 10.3l10.8-10.8c-2.4-2.4-5-4.9-7.8-7.7h22.8v22.5c-2.5-2.6-5-5.1-7.6-7.7l-17.9 17.9c-3.5-3.5-6.8-6.9-10.2-10.3-8.7 8.6-17.2 17.1-25.8 25.8-4.4-4.3-8.6-8.6-12.8-12.8-6.5 6.5-12.9 13-19.3 19.3-2.5-2.4-4.8-4.7-7-6.9l26.4-26.4zm64.3 41.5V76c0-1.2.3-1.5 1.5-1.5 2.4.1 4.7.1 7.1 0 1.1 0 1.4.3 1.4 1.4V132c0 1.1-.3 1.4-1.4 1.4-2.4-.1-4.8-.1-7.2 0-1.1 0-1.4-.3-1.4-1.4v-28.1z"/><path class="st9" d="M92.9 106.5V81.1c0-1.1.3-1.5 1.4-1.5 2.4.1 4.9 0 7.3 0 .9 0 1.2.3 1.2 1.2v51.3c0 1-.4 1.1-1.2 1.1-2.4 0-4.9-.1-7.3 0-1.1 0-1.4-.3-1.4-1.4v-25.3zm15.5 6.4v-19c0-1.1.3-1.4 1.4-1.4 2.4.1 4.9 0 7.3 0 .8 0 1.2.2 1.2 1.1v38.5c0 .8-.3 1.1-1.1 1.1h-7.6c-1 0-1.2-.3-1.2-1.3v-19zm-21 1.3v17.7c0 1.1-.3 1.4-1.4 1.4-2.4-.1-4.9 0-7.3 0-.8 0-1.2-.2-1.2-1.1V96.3c0-.8.3-1.1 1.1-1.1h7.6c1 0 1.2.3 1.2 1.3v17.7zm-40.8 1.3V99c0-1 .3-1.4 1.4-1.4 2.5.1 5 0 7.5 0 .8 0 1.1.3 1.1 1.1v33.5c0 .8-.3 1.1-1.1 1.1h-7.6c-.9 0-1.2-.3-1.2-1.2 0-5.6-.1-11.1-.1-16.6zm25.4 2.7v13.9c0 .9-.2 1.3-1.2 1.3-2.5-.1-5.1 0-7.6 0-.8 0-1.1-.3-1.1-1.1v-28.2c0-.8.2-1.2 1.1-1.1h7.6c.9 0 1.3.3 1.2 1.2v14zm-30.9 2.5V132c0 .9-.3 1.3-1.2 1.3-2.5-.1-5.1 0-7.6 0-.8 0-1.1-.3-1.1-1.1v-23.1c0-1 .4-1.1 1.2-1.1h7.5c.9 0 1.3.3 1.2 1.2v11.5z"/></g></g><g id="warranty" class="st10"><circle class="st8 st1" cx="83.5" cy="86.5" r="79.5"/><path class="st8 st0" d="M34.7 53.5c5.4-1.7 10.9-3.1 16.2-5 10.9-3.9 21.1-9.1 30.6-15.8 1.1-.8 1.9-.8 3 0 13.5 9.4 28.1 16.2 44.2 19.7 1.4.3 1.7.9 1.7 2.2.9 27.1-7.9 50.6-25.9 70.8-6.6 7.4-13.9 13.8-22.3 19-32.8-20.9-50.4-57.2-47.5-90.9z" id="gD8UAy_1_"/><path class="st8 st5" d="M53.3 97.6V81c0-.1 0-.2.1-.3.1-1.2.6-2.3 1.3-3.3.9-1.2 2.1-2.2 3.7-2.5.2-.1.3-.2.4-.4l4.8-12.3c.6-1.4 1.4-2.6 2.7-3.4 1.2-.7 2.5-1 3.9-1h25.7c.9 0 1.7.1 2.5.4 2 .7 3.2 2.1 4 4 1.6 4 3.1 8 4.7 12 .1.3.3.6.7.6.1 0 .2 0 .2.1 2.3.9 3.8 2.5 4.5 4.9.1.4.1.7.2 1.1v16.6H108v4.9c0 .4 0 .8-.1 1.2-.4 1.8-1.4 3-3.2 3.5-1.9.4-3.5-.1-4.7-1.6-.7-.9-.9-1.9-.9-3v-5H67.2v5.7c-.2 1.9-1.2 3.2-3 3.8-2.1.7-4.4-.2-5.3-2.2-.3-.7-.5-1.4-.5-2.2v-5.2h-3.6c-.8.2-1.2.2-1.5.2zM102 74.8c0-.1-.1-.2-.1-.3-.8-2.2-1.6-4.4-2.5-6.7-.4-1.2-.9-2.4-1.3-3.6-.5-1.2-1.4-1.8-2.7-1.8H70.1c-1.3 0-2.2.6-2.7 1.8l-.3.9c-1.2 3.1-2.3 6.3-3.5 9.4 0 .1-.1.2-.1.3H102zm-3 9c0 2.3 1.9 4.2 4.1 4.2 2.3 0 4.1-1.9 4.1-4.2 0-2.3-1.8-4.2-4.1-4.2S99 81.5 99 83.8zm-40.6 0c0 .3 0 .5.1.8.4 2.4 2.7 3.9 5 3.3 2-.5 3.3-2.5 3-4.7-.3-2.4-2.5-4-4.8-3.6-1.9.4-3.2 2.1-3.3 4.2z" id="t1Nm7r_1_"/></g><g id="wheels" class="st10"><g id="UE6sHB_2_" class="st8"><path class="st3" d="M163 86.5c.1 43.6-35.5 79.3-79.3 79.5-43.9.2-79.6-35.4-79.7-79.5C3.9 42.6 39.5 7 83.5 7c43.9 0 79.4 35.5 79.5 79.5zM83.5 29.7c-31.2-.1-56.7 25.2-56.9 56.4-.1 31.6 25.1 57 56.8 57.2 31 .1 56.6-25.3 56.8-56.4.3-31.6-25-57.1-56.7-57.2z"/><path class="st6" d="M98.2 36.7c-2.4 4.9-4.4 9.8-5.1 15-.3 2.9-.5 6 0 8.8 1.2 6.6 6.2 9.8 12.8 8.6 6-1.1 10.9-4.2 15.5-7.9 1.6-1.3 3.1-2.7 4.8-4.2 5.6 8.4 8.7 17.6 9 27.8-2.7-.2-5.2-.4-7.8-.5-4.4-.2-8.8.2-13 1.7-1 .3-2 .7-2.9 1.2-6.2 3.2-8 8.8-4.9 15.1 2.2 4.4 5.6 7.7 9.5 10.5 2.5 1.8 5.2 3.4 7.9 5.1-2.3 5.2-15.6 15-23.4 17-.3-1.4-.6-2.7-.9-4.1-1.2-4.8-2.7-9.5-5.6-13.6-1.5-2-3.2-3.9-5.2-5.4-3.6-2.6-7.6-2.6-11.2.1-2.2 1.7-4.1 3.9-5.7 6.3-3.1 4.6-4.5 9.8-5.6 15.2-.1.5-.2.9-.4 1.7-9.6-3.5-17.4-9.1-23.7-17.1 1.3-.8 2.5-1.4 3.7-2.2 4.5-2.7 8.6-5.9 11.8-10.1 1-1.4 2-2.9 2.6-4.5 2.4-5.6.6-10.7-4.7-13.8-3.9-2.2-8.1-3.1-12.5-3.2-3.9-.1-7.8.2-11.8.3.3-9.9 3.5-19 8.9-27.2 3.3 2.5 6.4 5.1 9.7 7.4 3.1 2.2 6.6 3.7 10.4 4.4 7.4 1.4 12.8-2.7 13.4-10.2.6-6.3-1.1-12.2-3.4-17.9-.6-1.4-1.2-2.7-1.9-4.3 10.1-2.8 19.8-2.9 29.7 0zm1.1 49.5c.1-8.6-6.9-15.8-15.4-15.9-9-.1-16.1 6.9-16.2 15.9-.1 8.4 7 15.6 15.4 15.7 9 .1 16.1-6.8 16.2-15.7z"/><path class="st6" d="M78.4 85.9c.1-2.8 2.4-5.1 5.3-5 2.9.1 5.1 2.4 5 5.2 0 2.8-2.4 5.1-5.2 5.1-2.9 0-5.2-2.4-5.1-5.3zm-3.6-10.7c1.7 0 3 1.3 3 3 0 1.6-1.3 2.9-2.9 3-1.7 0-3.1-1.2-3.1-2.9s1.3-3.1 3-3.1zm1.3 15.6c0 1.6-1.4 3.1-3 3.1s-3-1.4-3-3.1c0-1.6 1.3-2.9 2.9-3 1.6 0 3.1 1.4 3.1 3zm9.5 2.9c1.6 0 3 1.4 3 3.1 0 1.6-1.3 2.9-2.9 2.9-1.7 0-3.1-1.3-3.1-3s1.4-3 3-3zM91 76.2c0 1.7-1.3 3-3 3s-3-1.4-2.9-3.1c0-1.6 1.3-2.9 3-2.9 1.6 0 2.9 1.3 2.9 3zm6.5 11.9c0 1.6-1.4 3-3.1 3-1.6 0-2.9-1.3-3-2.9 0-1.7 1.3-3.1 3-3.1s3.1 1.4 3.1 3z"/></g></g><g class="st10 st8" id="partex"><path class="st1" d="M33.3 112.2V83.8c0-.1.1-.3.1-.4.3-2.1 1-4 2.2-5.6 1.6-2.1 3.7-3.7 6.3-4.3.4-.1.6-.3.7-.6l8.1-21c.9-2.4 2.4-4.4 4.7-5.8 2-1.2 4.3-1.7 6.6-1.7h43.8c1.5 0 2.9.2 4.3.7 3.4 1.2 5.5 3.6 6.8 6.9 2.7 6.8 5.3 13.7 7.9 20.6.2.6.5 1 1.2 1 .1 0 .3.1.4.1 4 1.5 6.5 4.3 7.6 8.4.2.6.2 1.2.3 1.8v28.3h-8v8.4c0 .7 0 1.4-.2 2-.6 3.1-2.4 5.2-5.5 5.9-3.2.7-5.9-.1-8-2.7-1.2-1.5-1.6-3.3-1.6-5.1v-8.5H56.5v8.2c0 .5 0 1-.1 1.6-.4 3.2-2.1 5.4-5.1 6.4-3.6 1.2-7.5-.4-9.1-3.7-.6-1.2-.8-2.4-.8-3.7v-8.9h-6.1c-.6.1-1.3.1-2 .1zm83.3-39c-.1-.2-.1-.3-.2-.5l-4.2-11.4c-.8-2-1.5-4.1-2.3-6.1-.8-2-2.3-3-4.6-3h-43c-2.2 0-3.7 1-4.5 3-.2.5-.4 1-.5 1.5-2 5.3-4 10.7-5.9 16-.1.1-.1.3-.2.5h65.4zm-5.2 15.4c0 4 3.2 7.2 7.1 7.2 3.9 0 7-3.2 7-7.2s-3.1-7.2-7-7.2c-4 0-7.1 3.2-7.1 7.2zm-69.2 0c0 .4.1.9.1 1.3.7 4 4.7 6.7 8.6 5.7 3.4-.9 5.6-4.2 5.2-8-.5-4.1-4.3-6.9-8.3-6.1-3.2.7-5.6 3.6-5.6 7.1z" id="t1Nm7r_3_"/><path class="st1" d="M163 86.5c0 43.9-35.6 79.5-79.5 79.5S4 130.4 4 86.5 39.6 7 83.5 7"/><path class="st7" d="M83 1v12l7.9-6z"/></g></svg>